<svg width="48" height="48" viewBox="0 0 48 48" fill="none" xmlns="http://www.w3.org/2000/svg">
<path d="M38.958 47.427H8.469C3.792 47.427 0 43.635 0 38.958V8.46901C0 3.79201 3.792 0 8.469 0H38.958C43.635 0 47.427 3.79201 47.427 8.46901V38.958C47.427 43.635 43.636 47.427 38.958 47.427Z" fill="#222221"/>
<path d="M23.714 13.054C27.186 13.054 27.597 13.067 28.968 13.13C30.236 13.188 30.924 13.4 31.382 13.578C31.989 13.814 32.422 14.095 32.877 14.55C33.332 15.005 33.614 15.438 33.85 16.045C34.028 16.503 34.24 17.192 34.298 18.46C34.36 19.831 34.374 20.242 34.374 23.714C34.374 27.186 34.361 27.597 34.298 28.968C34.24 30.236 34.028 30.924 33.85 31.382C33.614 31.989 33.332 32.422 32.877 32.877C32.422 33.332 31.989 33.614 31.382 33.849C30.924 34.027 30.235 34.239 28.968 34.297C27.597 34.359 27.186 34.373 23.714 34.373C20.242 34.373 19.831 34.36 18.46 34.297C17.192 34.239 16.504 34.027 16.046 33.849C15.439 33.613 15.006 33.331 14.551 32.877C14.096 32.422 13.814 31.989 13.578 31.382C13.4 30.924 13.188 30.236 13.13 28.968C13.068 27.597 13.054 27.186 13.054 23.714C13.054 20.242 13.067 19.831 13.13 18.46C13.188 17.192 13.4 16.504 13.578 16.045C13.814 15.438 14.096 15.005 14.551 14.55C15.006 14.095 15.439 13.813 16.046 13.578C16.504 13.4 17.193 13.188 18.46 13.13C19.831 13.067 20.242 13.054 23.714 13.054ZM23.714 10.711C20.183 10.711 19.74 10.726 18.353 10.789C16.969 10.852 16.024 11.072 15.197 11.393C14.342 11.725 13.617 12.17 12.894 12.893C12.171 13.616 11.727 14.341 11.395 15.196C11.073 16.023 10.854 16.968 10.791 18.352C10.728 19.739 10.713 20.182 10.713 23.713C10.713 27.244 10.728 27.687 10.791 29.074C10.854 30.458 11.074 31.403 11.395 32.23C11.727 33.085 12.172 33.81 12.894 34.533C13.617 35.256 14.342 35.7 15.197 36.033C16.024 36.354 16.969 36.574 18.353 36.637C19.74 36.7 20.183 36.715 23.714 36.715C27.245 36.715 27.688 36.7 29.075 36.637C30.459 36.574 31.404 36.354 32.231 36.033C33.086 35.701 33.811 35.256 34.534 34.533C35.257 33.81 35.701 33.085 36.034 32.23C36.355 31.403 36.575 30.458 36.638 29.074C36.701 27.687 36.716 27.244 36.716 23.713C36.716 20.182 36.701 19.739 36.638 18.352C36.575 16.968 36.355 16.023 36.034 15.196C35.702 14.341 35.257 13.616 34.534 12.893C33.811 12.17 33.086 11.726 32.231 11.393C31.404 11.072 30.459 10.852 29.075 10.789C27.688 10.726 27.245 10.711 23.714 10.711Z" fill="white"/>
<path d="M23.714 17.036C20.027 17.036 17.037 20.025 17.037 23.713C17.037 27.401 20.026 30.39 23.714 30.39C27.402 30.39 30.391 27.401 30.391 23.713C30.391 20.025 27.401 17.036 23.714 17.036ZM23.714 28.047C21.32 28.047 19.38 26.106 19.38 23.713C19.38 21.319 21.32 19.379 23.714 19.379C26.108 19.379 28.048 21.319 28.048 23.713C28.048 26.107 26.107 28.047 23.714 28.047Z" fill="white"/>
<path d="M32.215 16.773C32.215 17.635 31.516 18.334 30.655 18.334C29.793 18.334 29.095 17.635 29.095 16.773C29.095 15.911 29.793 15.213 30.655 15.213C31.516 15.212 32.215 15.911 32.215 16.773Z" fill="white"/>
</svg>
