<svg width="73" height="74" viewBox="0 0 73 74" fill="none" xmlns="http://www.w3.org/2000/svg">
<path d="M37.3538 67.534C36.8848 67.498 36.1958 67.462 35.5118 67.389C35.1598 67.351 34.8298 67.38 34.4948 67.49C33.9008 67.686 33.3028 67.867 32.7058 68.053C31.5418 68.414 30.3508 68.463 29.1478 68.393C27.5218 68.298 25.9238 68.01 24.3388 67.637C21.8838 67.06 19.8578 65.746 18.2428 63.745C17.3318 62.617 16.5058 61.428 15.9488 60.061C15.8458 59.808 15.6618 59.707 15.4488 59.61C14.2218 59.051 13.0778 58.352 12.1338 57.35C10.4038 55.511 9.17677 53.357 8.45877 50.89C7.94877 49.14 7.72579 47.353 7.84979 45.527C7.88279 45.036 7.80677 44.593 7.60477 44.143C6.71077 42.145 6.20978 40.022 5.87778 37.858C5.29178 34.041 5.60679 30.299 6.86179 26.656C7.53779 24.693 8.6618 23.023 10.0528 21.537C10.4878 21.072 10.9178 20.602 11.3648 20.15C11.6438 19.867 11.7558 19.559 11.7218 19.144C11.5918 17.544 11.9048 16.017 12.4838 14.542C12.9788 13.279 13.7498 12.235 14.7888 11.405C16.6268 9.937 18.6228 8.782 20.8448 8.067C21.2348 7.941 21.6248 7.798 21.9928 7.615C23.9848 6.626 26.0848 6.166 28.2858 6.229C29.0708 6.252 29.8528 6.364 30.6388 6.404C30.9428 6.42 31.2578 6.379 31.5578 6.313C32.4228 6.12 33.2778 5.872 34.1458 5.698C35.4708 5.433 36.7938 5.509 38.0978 5.856C39.7988 6.309 41.4918 6.786 43.0988 7.546C43.4228 7.699 43.7838 7.78 44.1368 7.85C45.7498 8.168 47.3498 8.53699 48.8938 9.13299C50.8238 9.87799 52.5138 11.016 54.1038 12.372C57.1348 14.958 59.2868 18.185 60.7768 21.925C61.2108 23.014 61.3458 24.131 61.0088 25.278C60.9348 25.528 60.9978 25.745 61.0878 25.97C61.4728 26.932 61.8468 27.898 62.2368 28.858C63.6738 32.399 64.2688 36.129 64.4548 39.936C64.5088 41.038 64.3578 42.15 64.3098 43.258C64.2878 43.768 64.2188 44.29 64.2918 44.787C64.6178 47.013 64.2288 49.128 63.5368 51.228C62.4898 54.403 60.5168 56.781 57.8668 58.607C56.8388 59.315 55.7698 59.948 54.6338 60.447C54.1608 60.655 53.7418 60.941 53.3258 61.251C52.5528 61.827 51.7828 62.418 50.9568 62.903C49.4708 63.774 47.9818 64.655 46.4278 65.378C43.6168 66.685 40.6768 67.493 37.3538 67.534ZM20.5878 28.835C20.5298 28.892 20.4468 28.937 20.4188 29.007C19.9078 30.283 19.3968 31.559 18.9018 32.841C18.7028 33.358 18.6748 33.902 18.7548 34.454C19.2948 38.209 20.2398 41.835 21.8878 45.24C21.9428 45.354 22.0208 45.456 22.0948 45.574C22.4018 45.357 22.2558 45.136 22.1668 44.926C21.3808 43.064 20.7198 41.156 20.1718 39.202C19.1868 35.691 19.5328 32.245 20.5778 28.821C21.1348 27.385 21.9138 26.093 22.8968 24.93C23.7518 23.918 24.6388 22.94 25.6488 22.09C25.7508 22.004 25.8378 21.899 25.9318 21.803C25.0148 22.131 24.2728 22.717 23.5138 23.282C22.7458 23.853 22.1718 24.545 21.8338 25.48C21.4948 26.419 21.0578 27.32 20.6808 28.245C20.6088 28.424 20.6168 28.637 20.5878 28.835ZM59.4098 44.587C59.3648 44.553 59.3198 44.519 59.2758 44.485C59.2328 44.577 59.2038 44.681 59.1428 44.758C58.1308 46.057 57.1118 47.35 56.1018 48.651C55.9698 48.821 55.8588 49.018 55.7788 49.22C54.6258 52.095 52.8778 54.512 50.6288 56.555C49.3408 57.725 47.9928 58.807 46.5498 59.759C46.3708 59.877 46.1648 59.973 46.0658 60.201C46.2948 60.145 46.5048 60.061 46.7068 59.957C48.3578 59.105 49.9418 58.136 51.3248 56.858C52.4158 55.85 53.4708 54.799 54.5248 53.749C56.9518 51.33 58.3928 48.318 59.3358 45.011C59.3738 44.874 59.3858 44.728 59.4098 44.587ZM8.18778 41.286C8.23578 41.248 8.27978 41.231 8.28378 41.207C8.42678 40.319 8.65778 39.445 8.55978 38.526C8.37978 36.827 8.28177 35.121 8.46777 33.418C8.63277 31.911 8.84578 30.408 9.08478 28.912C9.25178 27.87 9.4998 26.841 9.7078 25.806C9.7318 25.685 9.73479 25.559 9.75879 25.316C9.62479 25.487 9.54879 25.554 9.50879 25.639C9.17379 26.359 8.79478 27.063 8.52478 27.809C7.72578 30.019 7.42277 32.331 7.33777 34.679C7.26077 36.813 7.62077 38.893 8.07077 40.96C8.09477 41.069 8.14678 41.172 8.18778 41.286ZM49.9908 11.718C49.9678 11.748 49.9448 11.777 49.9218 11.807C50.0468 11.914 50.1788 12.012 50.2948 12.128C50.7898 12.625 51.2798 13.129 51.7728 13.629C52.4058 14.271 53.0298 14.923 53.6788 15.548C54.4248 16.267 55.2048 16.947 55.9488 17.668C57.7268 19.388 59.0388 21.461 60.1158 23.708C60.1958 23.875 60.2368 24.079 60.4318 24.21C60.3988 23.02 58.6938 19.723 57.0178 17.567C55.1958 15.222 51.4158 12.076 49.9908 11.718ZM33.2158 53.098C33.2168 53.058 33.2188 53.017 33.2198 52.977C33.1018 52.93 32.9848 52.877 32.8638 52.838C30.8528 52.189 28.9218 51.337 27.0568 50.324C26.5348 50.04 25.9938 49.762 25.5388 49.383C25.0808 49.001 24.6918 49.129 24.2458 49.307C24.2708 49.372 24.2758 49.41 24.2968 49.433C25.5118 50.776 26.8818 51.902 28.5068 52.664C28.7718 52.788 29.0678 52.88 29.3548 52.905C30.4658 53.001 31.5788 53.067 32.6918 53.135C32.8648 53.145 33.0408 53.112 33.2158 53.098ZM14.5458 57.6C14.5788 57.562 14.6128 57.524 14.6458 57.486C14.4408 57.181 14.2478 56.866 14.0298 56.571C12.6588 54.725 11.6898 52.669 11.0578 50.435C10.9928 50.206 10.9208 49.979 10.8468 49.753C10.6838 49.251 9.9198 48.081 9.5228 47.719C9.5078 47.746 9.47977 47.774 9.47977 47.802C9.47877 47.887 9.48477 47.972 9.49277 48.057C9.77477 50.883 10.7838 53.399 12.4708 55.626C12.9498 56.259 13.4868 56.831 14.1118 57.31C14.2488 57.417 14.3998 57.504 14.5458 57.6ZM56.0218 26.136C55.9868 26.155 55.9518 26.173 55.9168 26.192C55.8968 26.631 56.1888 26.969 56.3038 27.365C56.4168 27.757 56.5658 28.137 56.6828 28.528C56.8048 28.935 56.9118 29.347 57.0168 29.759C57.1178 30.155 57.2098 30.553 57.3038 30.95C57.4018 31.364 57.5028 31.778 57.5948 32.193C57.6868 32.608 57.7778 33.025 57.8538 33.443C57.9268 33.845 57.9878 34.25 58.0378 34.656C58.0898 35.079 58.1298 35.504 58.1608 35.929C58.1908 36.337 58.1958 36.747 58.2268 37.155C58.2578 37.557 58.1548 37.973 58.3488 38.374C58.5998 37.7 58.7928 37.016 58.9948 36.335C59.2528 35.46 59.2208 34.602 58.9818 33.719C58.2948 31.179 57.2128 28.802 56.2228 26.387C56.1838 26.292 56.0898 26.219 56.0218 26.136ZM25.2818 39.934C25.5368 39.733 25.4358 39.527 25.3998 39.34C25.1588 38.109 25.1878 36.896 25.6148 35.709C25.7178 35.424 25.7168 35.146 25.6328 34.857C25.5108 34.432 25.3928 34.005 25.2908 33.574C25.0318 32.483 25.0778 31.404 25.4688 30.353C25.6638 29.828 25.9008 29.321 26.1148 28.804C26.1528 28.712 26.1708 28.61 26.1978 28.513C24.8998 29.943 24.5468 31.73 24.3048 33.574C24.0118 35.796 24.5288 37.861 25.2818 39.934ZM25.2538 8.544C25.2408 8.51 25.2278 8.476 25.2158 8.442C25.1368 8.449 25.0548 8.447 24.9788 8.466C23.7388 8.777 22.4968 9.08099 21.2608 9.41099C21.0468 9.46799 20.8388 9.605 20.6638 9.751C20.1018 10.22 19.5368 10.688 19.0098 11.198C18.2298 11.951 17.4758 12.733 16.7238 13.518C16.4778 13.775 16.2748 14.076 16.1588 14.429C17.6328 13.377 19.0588 12.273 20.5298 11.237C22.0188 10.188 23.6218 9.336 25.2538 8.544ZM32.5888 66.915C32.5868 66.885 32.5848 66.855 32.5828 66.825C32.0088 66.63 31.4388 66.418 30.8588 66.247C30.6448 66.184 30.4058 66.214 30.1778 66.21C29.6878 66.201 29.1958 66.216 28.7068 66.187C28.2658 66.16 27.8288 66.06 27.3888 66.039C26.5108 65.997 25.6708 65.792 24.8578 65.458C23.6388 64.958 22.4218 64.452 21.2038 63.951C21.1478 63.928 21.0868 63.919 20.9278 63.877C21.0638 64.039 21.1238 64.132 21.2028 64.202C21.7698 64.7 22.3968 65.098 23.0718 65.417C24.3058 66 25.6238 66.273 26.9358 66.575C28.6598 66.971 30.4028 67.08 32.1608 66.981C32.3038 66.971 32.4468 66.937 32.5888 66.915ZM42.8818 60.188C42.8698 60.162 42.8578 60.135 42.8458 60.109C42.6368 60.184 42.4298 60.265 42.2178 60.332C41.0908 60.688 39.9688 61.065 38.8318 61.385C38.1178 61.586 37.4058 61.51 36.7248 61.164C36.5258 61.063 36.2868 61.013 36.0648 61.008C35.6898 61 35.3118 61.034 34.9378 61.078C34.7768 61.097 34.6248 61.188 34.4468 61.254C34.6878 61.579 34.6888 61.576 35.0368 61.673C36.3458 62.038 37.6948 62.047 39.0308 62.165C39.4238 62.2 39.7728 62.119 40.1098 61.912C40.8438 61.462 41.5848 61.026 42.3198 60.578C42.5148 60.461 42.6958 60.319 42.8818 60.188ZM30.3918 24.909C30.7948 25.059 31.1828 25.154 31.5228 25.344C31.8348 25.518 32.0798 25.523 32.3878 25.347C33.3298 24.811 34.3388 24.476 35.4048 24.317C35.6728 24.277 35.9338 24.153 36.1888 24.044C36.4758 23.922 36.7548 23.777 37.0338 23.636C37.1048 23.6 37.1658 23.54 37.2698 23.462C35.8098 23.326 31.1278 24.318 30.3918 24.909ZM40.1458 23.469C40.2508 23.553 40.2828 23.596 40.3248 23.61C41.6168 24.066 42.7268 24.829 43.7438 25.763C43.9458 25.948 44.2108 26.075 44.4668 26.175C45.0628 26.408 45.6708 26.61 46.2758 26.82C46.3488 26.845 46.4318 26.84 46.6178 26.861C44.7828 24.942 42.7708 23.67 40.1458 23.469ZM52.9288 38.886C52.8238 39.133 52.7468 39.296 52.6838 39.464C52.0738 41.083 51.4478 42.694 50.5178 44.153C50.4408 44.274 50.3788 44.44 50.3898 44.579C50.4258 45.046 50.4988 45.511 50.5578 45.981C51.3248 45.417 52.9468 40.621 52.9288 38.886ZM13.1188 17.473C13.5248 17.157 13.8788 16.812 14.0288 16.3C14.5048 14.667 15.3188 13.248 16.5098 12.067C16.5778 12 16.6168 11.902 16.7278 11.726C14.4628 13.023 13.4288 15.007 13.1188 17.473ZM37.5958 18.426C37.5548 18.404 37.5158 18.367 37.4738 18.361C36.6298 18.249 35.7878 18.121 34.9408 18.046C34.6988 18.025 34.4178 18.116 34.1978 18.239C33.3098 18.738 32.3688 19.059 31.3848 19.268C30.9058 19.37 30.4348 19.52 29.9638 19.661C29.8228 19.704 29.6928 19.791 29.5588 19.858C32.2028 19.124 34.8818 18.715 37.5958 18.426ZM29.1238 45.934C30.0798 46.676 33.8418 48.237 34.5598 48.157C32.7458 47.429 31.1898 46.407 29.6788 45.246C29.4748 45.499 29.3098 45.703 29.1238 45.934ZM57.6228 57.289C59.4368 56.517 62.2998 52.27 62.2708 50.506C61.6108 51.673 60.9568 52.893 60.2428 54.073C59.5188 55.269 58.5778 56.287 57.6228 57.289ZM42.1498 49.776C42.5958 49.817 42.9628 49.857 43.3318 49.88C43.4048 49.885 43.5028 49.845 43.5528 49.791C43.8778 49.437 44.1558 49.047 44.4198 48.51C44.0238 48.589 43.7268 48.701 43.4318 48.697C42.7548 48.689 42.4518 49.13 42.1498 49.776ZM48.6798 29.818C48.6528 30.315 48.9358 30.975 49.4298 31.601C49.2998 30.983 49.0688 30.411 48.6798 29.818ZM22.9368 46.618C22.6868 46.977 22.7198 47.115 23.1098 47.483C23.3418 47.084 23.3398 47.073 22.9368 46.618ZM36.1528 48.516C36.6288 48.756 36.6888 48.751 36.9958 48.463C36.6748 48.483 36.4138 48.499 36.1528 48.516ZM9.6088 45.091C9.6398 45.076 9.67179 45.06 9.70279 45.045C9.67279 44.984 9.64377 44.923 9.61377 44.862C9.59077 44.872 9.56778 44.882 9.54578 44.892C9.56678 44.958 9.5878 45.024 9.6088 45.091Z" fill="black"/>
<path d="M1.99182 45.424C1.99382 44.699 2.3188 44.17 2.8418 43.949C3.3598 43.73 3.9488 43.88 4.3688 44.338C4.6968 44.696 4.88081 45.137 4.97681 45.607C5.23381 46.877 5.47581 48.15 5.70581 49.425C5.90481 50.532 6.02582 51.658 6.27582 52.752C6.76282 54.88 7.71482 56.734 9.39682 58.127C10.0378 58.658 10.6398 59.241 11.2488 59.813C11.7578 60.292 12.1358 60.879 12.3218 61.565C12.7348 63.086 13.5798 64.376 14.3268 65.717C14.5468 66.112 14.8588 66.451 15.1308 66.815C15.2008 66.909 15.2888 66.991 15.3468 67.093C15.5688 67.481 15.3698 67.887 14.9378 67.886C14.7328 67.886 14.5128 67.82 14.3248 67.728C12.5238 66.844 11.0178 65.617 10.2298 63.645C9.8518 62.699 9.32881 61.916 8.50381 61.349C8.18981 61.134 7.92081 60.849 7.61481 60.621C5.92481 59.358 4.79281 57.646 3.94281 55.704C3.40681 54.479 3.12381 53.186 2.95181 51.859C2.75081 50.302 2.54381 48.746 2.32681 47.191C2.27081 46.786 2.16482 46.389 2.08682 45.988C2.04382 45.77 2.01282 45.55 1.99182 45.424Z" fill="black"/>
<path d="M34.8278 0C37.5908 0.02 40.2418 0.557998 42.7568 1.754C43.6798 2.193 44.5838 2.67399 45.4968 3.13499C45.5998 3.18699 45.7088 3.26901 45.8118 3.26601C46.0408 3.25801 46.1188 3.413 46.2158 3.575C46.5448 4.129 46.3588 4.56101 45.7338 4.59801C44.7698 4.65501 43.8028 4.707 42.8378 4.688C42.3388 4.678 41.8188 4.58 41.3498 4.403C38.4728 3.318 35.5228 3.17899 32.5228 3.59599C32.1498 3.64799 31.7738 3.7 31.3988 3.714C30.8448 3.736 30.3668 3.539 30.0178 3.071C29.4168 2.265 29.6778 1.118 30.5728 0.632004C31.0908 0.351004 31.6588 0.246993 32.2308 0.192993C33.0948 0.109993 33.9618 0.062 34.8278 0Z" fill="black"/>
<path d="M7.81079 17.19C7.83879 15.71 8.13579 14.315 8.74979 12.976C9.56579 11.196 10.6208 9.614 12.0618 8.321C13.0918 7.396 14.1098 6.455 15.1478 5.541C15.3668 5.348 15.6408 5.20001 15.9118 5.09801C16.3198 4.94501 16.6958 5.067 16.9758 5.413C17.2438 5.744 17.2878 6.145 17.0988 6.517C16.9568 6.796 16.7478 7.052 16.5248 7.269C15.6518 8.121 14.7648 8.95701 13.8768 9.79201C12.3968 11.183 11.2478 12.828 10.3798 14.693C10.1728 15.138 9.93379 15.567 9.69879 15.996C9.19079 16.924 8.79479 17.89 8.72079 18.973C8.71579 19.041 8.70978 19.111 8.68878 19.174C8.59978 19.447 8.38378 19.499 8.21078 19.267C8.10478 19.124 8.02279 18.938 7.99579 18.761C7.91579 18.24 7.86979 17.714 7.81079 17.19Z" fill="black"/>
<path d="M43.2238 68.607C43.5568 68.46 43.9088 68.442 44.2458 68.585C44.5468 68.712 44.7218 68.99 44.6538 69.325C44.5908 69.634 44.4848 69.957 44.3128 70.213C43.7668 71.024 43.0428 71.636 42.1838 72.063C40.8658 72.717 39.4618 73.048 38.0228 73.234C35.7358 73.53 33.4408 73.523 31.1448 73.398C30.6578 73.371 30.1708 73.26 29.6928 73.148C29.3508 73.068 29.0598 72.867 28.8598 72.551C28.4968 71.975 28.7708 71.383 29.4278 71.343C29.6048 71.332 29.7838 71.381 29.9628 71.403C30.6128 71.481 31.2618 71.625 31.9118 71.624C33.9288 71.621 35.9468 71.597 37.9618 71.514C39.5628 71.448 41.1158 71.081 42.5748 70.368C42.9718 70.174 43.3318 69.897 43.6988 69.644C43.8048 69.571 43.8918 69.457 43.9668 69.346C44.1798 69.032 44.0928 68.832 43.7308 68.794C43.5618 68.776 43.3908 68.769 43.2208 68.758C43.2218 68.708 43.2228 68.658 43.2238 68.607Z" fill="black"/>
<path d="M68.0158 32.581C67.9698 33.177 67.9428 33.775 67.8718 34.367C67.8308 34.702 67.7338 35.034 67.6288 35.355C67.5778 35.508 67.4638 35.65 67.3488 35.765C67.2078 35.905 67.0148 35.946 66.8518 35.818C66.6948 35.694 66.6288 35.545 66.6868 35.292C66.7518 35.01 66.7268 34.68 66.6538 34.394C66.5028 33.801 66.2968 33.223 66.1078 32.641C65.9978 32.301 65.8468 31.973 65.7658 31.627C65.5738 30.813 65.1738 30.114 64.7278 29.434C64.5158 29.11 64.2998 28.786 64.1108 28.447C63.9338 28.131 63.8508 27.786 63.9468 27.414C64.0978 26.83 64.6118 26.497 65.1558 26.694C65.4068 26.785 65.6718 26.954 65.8328 27.167C66.3188 27.81 66.7918 28.47 67.2058 29.165C67.9288 30.378 68.0698 31.086 68.0158 32.581Z" fill="black"/>
<path d="M60.8058 64.954C61.4708 64.951 61.8048 65.51 61.5188 66.022C61.4158 66.206 61.2488 66.37 61.0768 66.488C59.1298 67.818 57.1768 69.141 55.2208 70.457C54.9228 70.658 54.6178 70.881 54.2158 70.699C54.1358 70.663 54.0008 70.746 53.8938 70.783C53.6448 70.869 53.4028 70.988 53.1488 71.04C52.9288 71.085 52.6898 71.091 52.4698 71.051C52.1308 70.988 52.0058 70.731 52.1538 70.4C52.2408 70.205 52.3818 70.024 52.5338 69.876C52.6748 69.739 52.8528 69.633 53.0298 69.549C55.3828 68.434 57.5448 66.975 59.7268 65.551C59.9488 65.406 60.1638 65.246 60.3938 65.116C60.5478 65.03 60.7248 64.986 60.8058 64.954Z" fill="black"/>
<path d="M0.00179866 23.441C-0.0572013 22.112 1.34281 20.472 3.09381 21.488C3.59781 21.78 3.9028 22.221 4.0108 22.808C4.1868 23.769 3.7488 25.031 2.7138 25.32C2.5298 25.371 2.38182 25.576 2.22882 25.722C1.94782 25.989 1.85581 25.972 1.64081 25.632C1.58581 25.545 1.4858 25.469 1.3898 25.432C0.452799 25.072 0.0127987 24.446 0.00179866 23.441Z" fill="black"/>
<path d="M0.368774 58.531C0.433774 58.109 0.553793 57.766 0.862793 57.517C1.31579 57.152 1.89378 57.302 2.13278 57.846C2.17978 57.953 2.22377 58.073 2.22577 58.188C2.24277 59.225 2.72578 60.083 3.18878 60.949C3.26878 61.098 3.37077 61.237 3.42877 61.395C3.55177 61.728 3.33879 61.986 3.00479 61.915C2.89579 61.892 2.78579 61.836 2.69479 61.769C1.92579 61.199 1.23778 60.54 0.787781 59.664C0.605781 59.31 0.505774 58.91 0.368774 58.531Z" fill="black"/>
<path d="M70.5278 48.803C70.6668 48.174 71.1108 47.749 71.0578 47.136C70.9328 47.093 70.7948 47.054 70.6628 46.999C70.3568 46.872 70.1449 46.65 70.0599 46.311C69.8949 45.65 70.4759 44.76 71.1289 44.673C71.6839 44.599 72.0919 45 72.0729 45.626C72.0489 46.388 71.8229 47.101 71.4779 47.762C71.3099 48.084 71.0528 48.357 70.8258 48.645C70.7838 48.701 70.6968 48.717 70.5278 48.803Z" fill="black"/>
<path d="M22.4608 2.45C22.5088 2.354 22.5678 2.17301 22.6748 2.03101C22.8348 1.81801 23.1148 1.77101 23.2908 1.90101C23.4878 2.04601 23.4748 2.24301 23.4018 2.45101C23.3628 2.56301 23.3368 2.68301 23.2828 2.78701C23.1728 3.00301 22.9428 3.101 22.7428 3.025C22.5268 2.941 22.4618 2.758 22.4608 2.45Z" fill="black"/>
<path d="M41.4328 19.692H29.8438C24.5108 19.692 20.1858 24.017 20.1858 29.35V40.939C20.1858 46.272 24.5108 50.597 29.8438 50.597H41.4328C46.7658 50.597 51.0908 46.272 51.0908 40.939V29.35C51.0898 24.017 46.7648 19.692 41.4328 19.692ZM48.1928 40.939C48.1928 44.667 45.1598 47.699 41.4328 47.699H29.8438C26.1158 47.699 23.0838 44.666 23.0838 40.939V29.35C23.0838 25.622 26.1158 22.59 29.8438 22.59H41.4328C45.1608 22.59 48.1928 25.623 48.1928 29.35V40.939Z" fill="white"/>
<path d="M35.6378 27.418C31.3708 27.418 27.9117 30.877 27.9117 35.144C27.9117 39.411 31.3708 42.87 35.6378 42.87C39.9048 42.87 43.3637 39.411 43.3637 35.144C43.3637 30.878 39.9048 27.418 35.6378 27.418ZM35.6378 39.973C32.9758 39.973 30.8087 37.806 30.8087 35.144C30.8087 32.48 32.9758 30.315 35.6378 30.315C38.2998 30.315 40.4667 32.48 40.4667 35.144C40.4667 37.806 38.2998 39.973 35.6378 39.973Z" fill="white"/>
<path d="M43.9428 25.809C44.5118 25.809 44.9728 26.27 44.9728 26.839C44.9728 27.408 44.5118 27.868 43.9428 27.868C43.3748 27.868 42.9138 27.407 42.9138 26.839C42.9138 26.27 43.3748 25.809 43.9428 25.809Z" fill="white"/>
</svg>
