<svg width="26" height="26" viewBox="0 0 26 26" fill="none" xmlns="http://www.w3.org/2000/svg">
<path d="M13.001 2.343C16.473 2.343 16.884 2.35601 18.255 2.41901C19.523 2.47701 20.211 2.689 20.669 2.867C21.276 3.103 21.709 3.384 22.164 3.839C22.619 4.294 22.901 4.727 23.137 5.334C23.315 5.792 23.527 6.48101 23.585 7.74901C23.647 9.12001 23.661 9.53101 23.661 13.003C23.661 16.475 23.648 16.886 23.585 18.257C23.527 19.525 23.315 20.213 23.137 20.671C22.901 21.278 22.619 21.711 22.164 22.166C21.709 22.621 21.276 22.903 20.669 23.138C20.211 23.316 19.522 23.528 18.255 23.586C16.884 23.648 16.473 23.662 13.001 23.662C9.52901 23.662 9.118 23.649 7.747 23.586C6.479 23.528 5.791 23.316 5.333 23.138C4.726 22.902 4.293 22.62 3.83801 22.166C3.38301 21.711 3.10101 21.278 2.86501 20.671C2.68701 20.213 2.47501 19.525 2.41701 18.257C2.35501 16.886 2.341 16.475 2.341 13.003C2.341 9.53101 2.35401 9.12001 2.41701 7.74901C2.47501 6.48101 2.68701 5.793 2.86501 5.334C3.10101 4.727 3.38301 4.294 3.83801 3.839C4.293 3.384 4.726 3.102 5.333 2.867C5.791 2.689 6.48 2.47701 7.747 2.41901C9.118 2.35601 9.52901 2.343 13.001 2.343ZM13.001 0C9.47001 0 9.02701 0.0150029 7.64001 0.0780029C6.25601 0.141003 5.311 0.361007 4.484 0.682007C3.629 1.01401 2.90401 1.45901 2.18101 2.18201C1.45801 2.90501 1.01401 3.63 0.682007 4.485C0.360007 5.312 0.141003 6.25701 0.0780029 7.64101C0.0150029 9.02801 0 9.471 0 13.002C0 16.533 0.0150029 16.976 0.0780029 18.363C0.141003 19.747 0.361007 20.692 0.682007 21.519C1.01401 22.374 1.45901 23.099 2.18101 23.822C2.90401 24.545 3.629 24.989 4.484 25.322C5.311 25.643 6.25601 25.863 7.64001 25.926C9.02701 25.989 9.47001 26.004 13.001 26.004C16.532 26.004 16.975 25.989 18.362 25.926C19.746 25.863 20.691 25.643 21.518 25.322C22.373 24.99 23.098 24.545 23.821 23.822C24.544 23.099 24.988 22.374 25.321 21.519C25.642 20.692 25.862 19.747 25.925 18.363C25.988 16.976 26.003 16.533 26.003 13.002C26.003 9.471 25.988 9.02801 25.925 7.64101C25.862 6.25701 25.642 5.312 25.321 4.485C24.989 3.63 24.544 2.90501 23.821 2.18201C23.098 1.45901 22.373 1.01501 21.518 0.682007C20.691 0.361007 19.746 0.141003 18.362 0.0780029C16.975 0.0150029 16.532 0 13.001 0Z" fill="white"/>
<path d="M13.001 6.325C9.31398 6.325 6.32397 9.314 6.32397 13.002C6.32397 16.69 9.31298 19.679 13.001 19.679C16.689 19.679 19.678 16.69 19.678 13.002C19.678 9.314 16.688 6.325 13.001 6.325ZM13.001 17.336C10.607 17.336 8.66698 15.395 8.66698 13.002C8.66698 10.608 10.607 8.668 13.001 8.668C15.395 8.668 17.335 10.608 17.335 13.002C17.335 15.396 15.394 17.336 13.001 17.336Z" fill="white"/>
<path d="M21.5021 6.06201C21.5021 6.92401 20.8031 7.623 19.9421 7.623C19.0801 7.623 18.3821 6.92401 18.3821 6.06201C18.3821 5.20001 19.0801 4.502 19.9421 4.502C20.8031 4.501 21.5021 5.20001 21.5021 6.06201Z" fill="white"/>
</svg>
