<svg width="48" height="48" viewBox="0 0 48 48" fill="none" xmlns="http://www.w3.org/2000/svg">
<path d="M38.958 47.427H8.46899C3.79199 47.427 0 43.635 0 38.958V8.46899C0 3.79199 3.79199 0 8.46899 0H38.958C43.635 0 47.427 3.79199 47.427 8.46899V38.958C47.427 43.635 43.635 47.427 38.958 47.427Z" fill="#222221"/>
<path d="M23.713 9.849C16.056 9.849 9.849 16.056 9.849 23.713C9.849 31.37 16.056 37.577 23.713 37.577C31.37 37.577 37.577 31.37 37.577 23.713C37.578 16.056 31.37 9.849 23.713 9.849ZM30.091 29.883C29.813 30.299 29.328 30.437 28.912 30.16C25.654 28.15 21.564 27.734 16.711 28.843C16.226 28.981 15.81 28.635 15.671 28.219C15.532 27.734 15.879 27.318 16.295 27.179C21.563 26.001 26.139 26.486 29.743 28.704C30.23 28.912 30.299 29.467 30.091 29.883ZM31.755 26.07C31.409 26.555 30.785 26.763 30.299 26.417C26.556 24.129 20.871 23.436 16.504 24.823C15.949 24.961 15.326 24.684 15.187 24.13C15.048 23.575 15.326 22.952 15.88 22.813C20.94 21.288 27.179 22.051 31.478 24.685C31.893 24.892 32.101 25.585 31.755 26.07ZM31.893 22.188C27.457 19.554 20.039 19.277 15.811 20.594C15.118 20.802 14.424 20.386 14.216 19.762C14.008 19.069 14.424 18.376 15.048 18.168C19.97 16.712 28.08 16.99 33.21 20.04C33.834 20.387 34.042 21.218 33.695 21.842C33.349 22.327 32.517 22.534 31.893 22.188Z" fill="white"/>
</svg>
