<svg width="28" height="28" viewBox="0 0 28 28" fill="none" xmlns="http://www.w3.org/2000/svg">
<path d="M13.864 0C6.207 0 0 6.20698 0 13.864C0 21.521 6.207 27.728 13.864 27.728C21.521 27.728 27.728 21.521 27.728 13.864C27.729 6.20698 21.521 0 13.864 0ZM20.242 20.034C19.964 20.45 19.479 20.588 19.063 20.311C15.805 18.301 11.715 17.885 6.862 18.994C6.377 19.132 5.96099 18.786 5.82199 18.37C5.68299 17.885 6.03 17.469 6.446 17.33C11.714 16.152 16.29 16.637 19.894 18.855C20.381 19.063 20.45 19.618 20.242 20.034ZM21.906 16.221C21.56 16.706 20.936 16.914 20.45 16.568C16.707 14.28 11.022 13.587 6.655 14.974C6.1 15.112 5.477 14.835 5.338 14.281C5.199 13.726 5.47699 13.103 6.03099 12.964C11.091 11.439 17.33 12.202 21.629 14.836C22.044 15.043 22.252 15.736 21.906 16.221ZM22.044 12.339C17.608 9.70499 10.19 9.428 5.96199 10.745C5.26899 10.953 4.57499 10.537 4.36699 9.91299C4.15899 9.21999 4.57499 8.527 5.19899 8.319C10.121 6.863 18.231 7.14098 23.361 10.191C23.985 10.538 24.193 11.369 23.846 11.993C23.5 12.478 22.668 12.685 22.044 12.339Z" fill="white"/>
</svg>
