<svg width="76" height="72" viewBox="0 0 76 72" fill="none" xmlns="http://www.w3.org/2000/svg">
<path d="M19.7131 14.4256C20.1301 14.1956 20.7341 13.8456 21.3541 13.5276C21.6721 13.3646 21.9382 13.1586 22.1632 12.8836C22.5632 12.3966 22.9751 11.9186 23.3841 11.4386C24.1811 10.5016 25.1661 9.80561 26.2241 9.19861C27.6541 8.37861 29.1631 7.73259 30.7071 7.16159C33.0971 6.27759 35.5122 6.23061 37.9432 6.97061C39.3132 7.38761 40.6451 7.90161 41.8421 8.70761C42.0631 8.85661 42.2731 8.83761 42.5051 8.79861C43.8431 8.57761 45.1842 8.51559 46.5162 8.81259C48.9592 9.35659 51.1421 10.4366 53.0581 12.0506C54.4181 13.1966 55.5541 14.5296 56.4161 16.0866C56.6481 16.5056 56.9472 16.8236 57.3572 17.0796C59.1742 18.2156 60.7251 19.6686 62.1531 21.2496C64.6721 24.0376 66.3882 27.2616 67.2532 30.9236C67.7192 32.8966 67.6501 34.8786 67.2571 36.8566C67.1341 37.4756 67.0172 38.0956 66.8782 38.7106C66.7912 39.0946 66.8601 39.4086 67.1081 39.7276C68.0661 40.9596 68.6092 42.3776 68.9002 43.8996C69.1492 45.2016 69.0481 46.4786 68.6061 47.7276C67.8241 49.9376 66.7411 51.9806 65.2351 53.7896C64.9701 54.1076 64.7151 54.4396 64.5001 54.7916C63.3331 56.6966 61.7951 58.2306 59.8931 59.3936C59.2151 59.8086 58.4911 60.1486 57.8031 60.5496C57.5361 60.7046 57.2902 60.9116 57.0722 61.1306C56.4402 61.7656 55.8461 62.4386 55.2011 63.0596C54.2171 64.0066 53.0542 64.6746 51.7622 65.1116C50.0782 65.6806 48.3881 66.2266 46.6211 66.4936C46.2651 66.5476 45.9151 66.6806 45.5801 66.8186C44.0421 67.4486 42.4891 68.0316 40.8621 68.3976C38.8301 68.8556 36.7912 68.8606 34.7232 68.6316C30.7802 68.1966 27.2441 66.7526 23.9981 64.5256C23.0531 63.8776 22.3461 63.0416 22.0241 61.9206C21.9541 61.6756 21.7861 61.5336 21.5901 61.3996C20.7531 60.8286 19.9242 60.2466 19.0852 59.6796C15.9892 57.5856 13.5081 54.8736 11.3331 51.8726C10.7041 51.0046 10.2431 50.0146 9.69614 49.0846C9.44514 48.6566 9.22714 48.1936 8.90214 47.8286C7.44614 46.1936 6.65614 44.2546 6.13114 42.1616C5.33714 38.9966 5.75213 35.9696 7.03513 33.0186C7.53213 31.8736 8.10515 30.7686 8.80515 29.7346C9.09615 29.3046 9.30014 28.8396 9.48914 28.3576C9.83914 27.4616 10.1811 26.5546 10.6251 25.7036C11.4251 24.1746 12.2222 22.6336 13.1582 21.1866C14.8452 18.5736 16.9141 16.2926 19.7131 14.4256ZM54.4481 36.7206C54.4671 36.6426 54.5131 36.5596 54.5001 36.4876C54.2571 35.1656 54.0151 33.8436 53.7561 32.5256C53.6521 31.9946 53.3861 31.5356 53.0261 31.1296C50.5781 28.3666 47.8551 25.9326 44.6521 24.0656C44.5451 24.0036 44.4251 23.9636 44.2991 23.9076C44.1541 24.2536 44.3952 24.3536 44.5812 24.4756C46.2352 25.5606 47.8071 26.7506 49.3071 28.0416C52.0031 30.3606 53.5351 33.3596 54.4621 36.7276C54.7501 38.2056 54.7732 39.6886 54.5552 41.1786C54.3652 42.4756 54.1301 43.7616 53.7241 45.0116C53.6831 45.1376 53.6651 45.2716 53.6361 45.4016C54.2411 44.6286 54.5601 43.7406 54.9051 42.8626C55.2541 41.9736 55.3751 41.0926 55.1661 40.1436C54.9561 39.1906 54.8502 38.2156 54.6802 37.2536C54.6482 37.0676 54.5271 36.8976 54.4481 36.7206ZM13.1481 45.2996C13.2041 45.3026 13.2601 45.3056 13.3161 45.3086C13.3041 45.2096 13.2741 45.1096 13.2841 45.0126C13.4551 43.3956 13.6351 41.7786 13.8021 40.1616C13.8241 39.9506 13.8132 39.7286 13.7752 39.5196C13.2312 36.5396 13.4341 33.6046 14.2601 30.6996C14.7331 29.0356 15.3042 27.4106 16.0252 25.8366C16.1142 25.6416 16.2391 25.4506 16.2021 25.2096C16.0381 25.3816 15.9031 25.5666 15.7871 25.7616C14.8371 27.3666 14.0051 29.0306 13.5091 30.8356C13.1171 32.2596 12.7781 33.6976 12.4401 35.1356C11.6611 38.4466 12.0342 41.6966 12.9862 44.9126C13.0272 45.0466 13.0941 45.1706 13.1481 45.2996ZM58.3761 19.7306C58.3551 19.7886 58.3271 19.8266 58.3371 19.8476C58.6861 20.6496 58.9531 21.4906 59.5231 22.1856C60.5761 23.4706 61.5631 24.8086 62.3071 26.2986C62.9661 27.6176 63.5812 28.9606 64.1712 30.3116C64.5822 31.2536 64.9162 32.2286 65.2882 33.1866C65.3322 33.2986 65.3971 33.4026 65.5041 33.6136C65.5271 33.4006 65.5561 33.3036 65.5451 33.2126C65.4481 32.4406 65.3971 31.6576 65.2301 30.9006C64.7371 28.6576 63.7701 26.6066 62.5971 24.6456C61.5311 22.8636 60.1251 21.3666 58.6471 19.9306C58.5691 19.8556 58.4711 19.8006 58.3761 19.7306ZM38.5581 66.8956C38.5621 66.8586 38.5661 66.8216 38.5691 66.7846C38.4071 66.7666 38.2421 66.7596 38.0821 66.7286C37.3981 66.5966 36.7151 66.4556 36.0321 66.3206C35.1541 66.1466 34.2791 65.9596 33.3971 65.8076C32.3831 65.6336 31.3611 65.5086 30.3471 65.3326C27.9261 64.9116 25.7151 63.9456 23.6101 62.7086C23.4541 62.6166 23.3101 62.4726 23.0761 62.4736C23.7341 63.4256 26.9291 65.1716 29.4931 66.0046C32.2831 66.9106 37.1591 67.3896 38.5581 66.8956ZM30.8731 23.9096C30.8931 23.9436 30.9132 23.9776 30.9342 24.0106C31.0592 23.9836 31.1871 23.9626 31.3101 23.9276C33.3611 23.3466 35.4511 22.9766 37.5711 22.7726C38.1651 22.7156 38.7711 22.6446 39.3591 22.7026C39.9501 22.7606 40.2131 22.4426 40.4961 22.0516C40.4401 22.0126 40.4162 21.9836 40.3872 21.9766C38.6442 21.5516 36.8841 21.3906 35.1021 21.6656C34.8111 21.7106 34.5121 21.7986 34.2541 21.9376C33.2601 22.4726 32.2811 23.0326 31.3001 23.5906C31.1461 23.6776 31.0141 23.8026 30.8731 23.9096ZM44.3361 9.9396C44.3281 9.9886 44.3201 10.0386 44.3111 10.0876C44.6471 10.2236 44.9771 10.3736 45.3191 10.4926C47.4611 11.2406 49.3721 12.3826 51.0931 13.8546C51.2701 14.0056 51.4511 14.1506 51.6331 14.2946C52.0371 14.6136 53.3062 15.1466 53.8352 15.2216C53.8332 15.1906 53.8421 15.1536 53.8281 15.1306C53.7841 15.0606 53.7341 14.9946 53.6821 14.9296C51.9451 12.7816 49.7561 11.2866 47.1441 10.4026C46.4021 10.1516 45.6431 9.9806 44.8591 9.9346C44.6851 9.9246 44.5101 9.9376 44.3361 9.9396ZM25.8001 58.4706C25.8201 58.4356 25.8401 58.4016 25.8591 58.3666C25.6441 57.9976 25.2161 57.8836 24.9091 57.6236C24.6051 57.3666 24.2771 57.1386 23.9711 56.8846C23.6521 56.6206 23.3431 56.3426 23.0351 56.0656C22.7401 55.7986 22.4511 55.5246 22.1601 55.2526C21.8571 54.9696 21.5531 54.6876 21.2551 54.3996C20.9571 54.1116 20.6591 53.8226 20.3721 53.5236C20.0971 53.2356 19.8311 52.9396 19.5741 52.6356C19.3061 52.3196 19.0471 51.9956 18.7951 51.6666C18.5531 51.3506 18.3322 51.0186 18.0892 50.7036C17.8502 50.3936 17.7171 49.9976 17.3401 49.7776C17.4841 50.4656 17.6821 51.1296 17.8721 51.7956C18.1161 52.6516 18.5981 53.3336 19.2691 53.9216C21.1981 55.6136 23.3752 56.9536 25.4952 58.3756C25.5802 58.4326 25.6981 58.4406 25.8001 58.4706ZM44.5821 30.2636C44.4721 30.5676 44.6671 30.6806 44.7971 30.8126C45.6541 31.6836 46.2722 32.6876 46.5382 33.8906C46.6022 34.1796 46.7501 34.4056 46.9741 34.5956C47.3031 34.8746 47.6291 35.1576 47.9441 35.4526C48.7421 36.1986 49.2751 37.1046 49.5001 38.1756C49.6121 38.7106 49.6801 39.2546 49.7721 39.7946C49.7891 39.8906 49.8271 39.9836 49.8561 40.0776C50.2001 38.1956 49.5531 36.5446 48.7821 34.9076C47.8531 32.9356 46.3201 31.5376 44.5821 30.2636ZM61.2381 55.8356C61.2671 55.8566 61.2961 55.8766 61.3251 55.8976C61.3881 55.8476 61.4591 55.8056 61.5141 55.7476C62.4031 54.8096 63.2951 53.8766 64.1701 52.9256C64.3211 52.7616 64.4251 52.5346 64.4961 52.3196C64.7241 51.6276 64.9561 50.9336 65.1341 50.2276C65.3971 49.1836 65.6231 48.1296 65.8451 47.0756C65.9181 46.7306 65.9311 46.3726 65.8421 46.0206C65.1481 47.6906 64.5231 49.3786 63.8231 51.0336C63.1121 52.7106 62.2031 54.2896 61.2381 55.8356ZM24.0852 12.3016C24.1032 12.3246 24.1201 12.3486 24.1381 12.3716C24.7291 12.2146 25.3251 12.0726 25.9081 11.8916C26.1231 11.8246 26.3101 11.6686 26.5061 11.5456C26.9271 11.2826 27.3361 10.9986 27.7671 10.7536C28.1551 10.5326 28.5791 10.3726 28.9641 10.1476C29.7321 9.69761 30.5531 9.40161 31.4201 9.22461C32.7201 8.95961 34.0201 8.70059 35.3201 8.43759C35.3791 8.42559 35.4362 8.39861 35.5942 8.34561C35.3932 8.28861 35.2921 8.2456 35.1881 8.2326C34.4431 8.1386 33.6991 8.16062 32.9581 8.27362C31.6021 8.47862 30.3381 8.98361 29.0651 9.46161C27.3911 10.0896 25.8551 10.9636 24.4141 12.0136C24.2961 12.0986 24.1942 12.2046 24.0852 12.3016ZM18.9121 23.4626C18.9361 23.4776 18.9601 23.4926 18.9841 23.5076C19.1221 23.3316 19.2551 23.1506 19.3991 22.9796C20.1671 22.0676 20.9201 21.1406 21.7151 20.2526C22.2141 19.6956 22.8591 19.3646 23.6211 19.2696C23.8431 19.2416 24.0731 19.1516 24.2641 19.0326C24.5871 18.8316 24.8901 18.5966 25.1831 18.3536C25.3091 18.2496 25.3911 18.0906 25.5061 17.9396C25.1291 17.8076 25.1301 17.8106 24.7841 17.9236C23.4791 18.3476 22.3301 19.0856 21.1331 19.7266C20.7811 19.9146 20.5281 20.1736 20.3511 20.5286C19.9671 21.3006 19.5681 22.0646 19.1821 22.8356C19.0791 23.0386 19.0011 23.2536 18.9121 23.4626ZM48.2062 45.3306C47.7852 45.4306 47.4052 45.5676 47.0162 45.6006C46.6592 45.6306 46.4481 45.7626 46.2801 46.0756C45.7641 47.0326 45.0851 47.8616 44.2641 48.5796C44.0571 48.7606 43.9021 49.0056 43.7431 49.2346C43.5641 49.4926 43.4041 49.7646 43.2421 50.0336C43.2011 50.1026 43.1811 50.1846 43.1341 50.3056C44.4451 49.6096 47.8942 46.2186 48.2062 45.3306ZM40.6892 51.8856C40.5552 51.8746 40.5051 51.8586 40.4621 51.8696C39.1241 52.2106 37.7771 52.2016 36.4191 52.0016C36.1501 51.9616 35.8571 52.0056 35.5871 52.0646C34.9571 52.2036 34.3342 52.3746 33.7102 52.5366C33.6352 52.5566 33.5671 52.6066 33.3981 52.6916C35.9721 53.2426 38.3542 53.1696 40.6892 51.8856ZM21.6701 46.3706C21.6281 46.1116 21.6072 45.9356 21.5722 45.7636C21.2322 44.1076 20.9102 42.4496 20.9262 40.7466C20.9272 40.6056 20.8922 40.4356 20.8092 40.3286C20.5302 39.9676 20.2231 39.6286 19.9231 39.2786C19.5721 40.1616 20.7351 44.9666 21.6701 46.3706ZM66.8081 41.8616C66.6311 42.3426 66.5131 42.8196 66.6571 43.3196C67.1181 44.9136 67.1791 46.5196 66.7941 48.1386C66.7721 48.2306 66.7911 48.3326 66.7901 48.5366C68.0241 46.2306 67.8511 44.0426 66.8081 41.8616ZM45.5252 54.5896C45.5712 54.5856 45.6242 54.5936 45.6632 54.5746C46.4382 54.1996 47.2221 53.8406 47.9801 53.4336C48.1971 53.3176 48.3871 53.0886 48.5081 52.8666C48.9981 51.9696 49.6261 51.1896 50.3511 50.4756C50.7041 50.1276 51.0242 49.7466 51.3482 49.3716C51.4462 49.2586 51.5091 49.1166 51.5881 48.9876C49.7331 51.0446 47.6772 52.8566 45.5252 54.5896ZM38.1431 27.4916C36.9391 27.4136 32.9181 28.2176 32.3511 28.6786C34.2761 28.2716 36.1391 28.2466 38.0361 28.3586C38.0751 28.0396 38.1071 27.7826 38.1431 27.4916ZM7.93513 33.9596C6.80413 35.5896 6.62415 40.6316 7.58415 42.0526C7.52615 40.7366 7.43414 39.3816 7.41514 38.0256C7.39614 36.6526 7.65613 35.3026 7.93513 33.9596ZM25.0501 31.5466C24.6501 31.7586 24.3171 31.9296 23.9921 32.1136C23.9281 32.1496 23.8651 32.2356 23.8521 32.3086C23.7641 32.7766 23.7341 33.2476 23.7951 33.8316C24.0891 33.5486 24.2821 33.2936 24.5351 33.1336C25.1121 32.7666 25.1351 32.2406 25.0501 31.5466ZM30.0821 51.4186C29.8421 50.9986 29.2521 50.6166 28.5001 50.3796C28.9381 50.8106 29.4371 51.1486 30.0821 51.4186ZM43.0321 23.5216C43.0541 23.0906 42.9532 22.9966 42.4262 22.9116C42.4412 23.3646 42.4491 23.3726 43.0321 23.5216ZM30.8081 29.2656C30.2771 29.3326 30.2292 29.3696 30.1202 29.7736C30.3822 29.5806 30.5951 29.4226 30.8081 29.2656ZM55.1542 17.4126C55.1362 17.4426 55.1171 17.4726 55.0991 17.5026C55.1561 17.5356 55.2141 17.5696 55.2711 17.6026C55.2851 17.5816 55.2991 17.5616 55.3131 17.5406C55.2601 17.4976 55.2072 17.4556 55.1542 17.4126Z" fill="black"/>
<path d="M61.4431 12.9386C61.8261 13.5306 61.8301 14.1406 61.5031 14.6096C61.1791 15.0736 60.6001 15.2766 60.0001 15.1356C59.5321 15.0246 59.1421 14.7666 58.8121 14.4356C57.9211 13.5426 57.0411 12.6386 56.1711 11.7256C55.4151 10.9326 54.7161 10.0816 53.9241 9.3276C52.3831 7.8616 50.5931 6.8756 48.4271 6.6676C47.6021 6.5886 46.7821 6.4456 45.9621 6.3146C45.2761 6.2046 44.6441 5.9346 44.1231 5.4786C42.9661 4.4666 41.5661 3.88059 40.2211 3.20059C39.8251 3.00059 39.3801 2.8956 38.9571 2.7496C38.8471 2.7116 38.7291 2.6926 38.6261 2.6426C38.2321 2.4486 38.1861 2.00859 38.5531 1.77059C38.7271 1.65759 38.9491 1.5896 39.1571 1.5606C41.1541 1.2876 43.0831 1.4566 44.7961 2.6296C45.6181 3.1926 46.4771 3.54161 47.4781 3.54861C47.8581 3.55161 48.2381 3.63461 48.6191 3.65161C50.7231 3.74861 52.5901 4.5196 54.3421 5.6336C55.4461 6.3366 56.3721 7.23461 57.2211 8.22161C58.2171 9.37961 59.2171 10.5336 60.2251 11.6816C60.4871 11.9806 60.7871 12.2456 61.0661 12.5306C61.2161 12.6856 61.3581 12.8476 61.4431 12.9386Z" fill="black"/>
<path d="M57.6381 68.0826C55.2821 69.5906 52.7471 70.6146 49.9781 71.0276C48.9621 71.1786 47.9402 71.2846 46.9212 71.4136C46.8062 71.4276 46.6701 71.4206 46.5841 71.4806C46.3941 71.6136 46.2451 71.5306 46.0771 71.4516C45.5041 71.1816 45.4331 70.7266 45.9451 70.3516C46.7331 69.7736 47.5272 69.1966 48.3562 68.6796C48.7842 68.4126 49.2782 68.2056 49.7702 68.0916C52.7872 67.3886 55.3641 65.8746 57.6901 63.8796C57.9791 63.6316 58.2711 63.3816 58.5821 63.1626C59.0411 62.8396 59.5511 62.7356 60.0951 62.9246C61.0321 63.2496 61.4191 64.3286 60.9161 65.2196C60.6251 65.7346 60.1981 66.1326 59.7421 66.4926C59.0501 67.0356 58.3401 67.5536 57.6381 68.0826Z" fill="black"/>
<path d="M71.4622 39.1636C72.2232 40.3856 72.7102 41.6866 72.8982 43.1156C73.1482 45.0176 73.0912 46.8886 72.5532 48.7376C72.1692 50.0596 71.8032 51.3876 71.4062 52.7066C71.3222 52.9846 71.1682 53.2566 70.9922 53.4896C70.7272 53.8396 70.3432 53.9476 69.9222 53.8196C69.5192 53.6976 69.2702 53.3956 69.2332 52.9876C69.2062 52.6816 69.2482 52.3576 69.3222 52.0576C69.6122 50.8816 69.9212 49.7106 70.2332 48.5396C70.7532 46.5886 70.8562 44.6146 70.6052 42.6146C70.5452 42.1376 70.5212 41.6566 70.4932 41.1766C70.4332 40.1396 70.2572 39.1336 69.7462 38.2106C69.7142 38.1526 69.6832 38.0926 69.6672 38.0286C69.5982 37.7576 69.7542 37.5956 70.0242 37.6896C70.1892 37.7476 70.3582 37.8536 70.4752 37.9836C70.8182 38.3656 71.1352 38.7696 71.4622 39.1636Z" fill="black"/>
<path d="M14.1612 16.7896C13.9562 17.0936 13.6672 17.3016 13.3062 17.3716C12.9832 17.4336 12.6872 17.3046 12.5682 16.9936C12.4582 16.7076 12.3772 16.3846 12.3872 16.0816C12.4212 15.1186 12.7102 14.2206 13.2142 13.3986C13.9862 12.1386 15.0022 11.0936 16.1252 10.1476C17.9092 8.64461 19.8612 7.38361 21.8762 6.21961C22.3042 5.97261 22.7762 5.79461 23.2412 5.62161C23.5742 5.49761 23.9272 5.50062 24.2642 5.64862C24.8772 5.91862 24.9592 6.55159 24.4222 6.94659C24.2782 7.05259 24.0992 7.1116 23.9362 7.1926C23.3432 7.4876 22.7152 7.72862 22.1642 8.08762C20.4542 9.20262 18.7542 10.3356 17.0872 11.5146C15.7632 12.4516 14.6392 13.6076 13.7782 14.9936C13.5442 15.3706 13.3852 15.7946 13.2072 16.2046C13.1562 16.3226 13.1422 16.4636 13.1372 16.5946C13.1232 16.9686 13.3032 17.0826 13.6292 16.9146C13.7822 16.8356 13.9302 16.7466 14.0812 16.6626C14.1092 16.7056 14.1352 16.7476 14.1612 16.7896Z" fill="black"/>
<path d="M12.2041 59.8346C11.9271 59.3236 11.6331 58.8216 11.3801 58.2986C11.2371 58.0026 11.1431 57.6796 11.0631 57.3596C11.0251 57.2066 11.0461 57.0276 11.0831 56.8706C11.1281 56.6786 11.2711 56.5386 11.4771 56.5536C11.6751 56.5676 11.8111 56.6526 11.8951 56.8916C11.9891 57.1576 12.1861 57.4126 12.3981 57.6046C12.8401 58.0046 13.3211 58.3626 13.7901 58.7326C14.0631 58.9486 14.3651 59.1336 14.6181 59.3706C15.2121 59.9276 15.9221 60.2766 16.6611 60.5866C17.0131 60.7336 17.3671 60.8786 17.7081 61.0506C18.0261 61.2106 18.2791 61.4456 18.3951 61.8026C18.5761 62.3616 18.3171 62.9166 17.7501 63.0566C17.4891 63.1206 17.1751 63.1296 16.9251 63.0446C16.1721 62.7886 15.4201 62.5116 14.7011 62.1736C13.4451 61.5816 12.9511 61.0816 12.2041 59.8346Z" fill="black"/>
<path d="M1.17216 29.4676C0.609161 29.8366 0.0291708 29.5656 0.00117082 28.9906C-0.00882918 28.7846 0.0461686 28.5576 0.130169 28.3666C1.07817 26.2076 2.03418 24.0526 2.99818 21.9006C3.14518 21.5726 3.28519 21.2216 3.72319 21.1486C3.81119 21.1336 3.88016 20.9916 3.95216 20.9026C4.11816 20.6956 4.26017 20.4646 4.44917 20.2816C4.61217 20.1236 4.81218 19.9866 5.02018 19.8986C5.34118 19.7626 5.58316 19.9036 5.63316 20.2546C5.66216 20.4616 5.63918 20.6866 5.58818 20.8916C5.54118 21.0806 5.44616 21.2656 5.34016 21.4316C3.93316 23.6386 2.87217 26.0216 1.77317 28.3856C1.66117 28.6266 1.56418 28.8756 1.43718 29.1086C1.35118 29.2626 1.22516 29.3966 1.17216 29.4676Z" fill="black"/>
<path d="M74.7802 29.7606C75.5342 30.8116 75.2152 32.9206 73.1902 33.0576C72.6072 33.0976 72.1152 32.9066 71.7132 32.4876C71.0542 31.8016 70.7572 30.5316 71.4832 29.7246C71.6122 29.5816 71.6292 29.3326 71.6822 29.1286C71.7792 28.7566 71.8662 28.7186 72.2292 28.8776C72.3222 28.9186 72.4482 28.9246 72.5482 28.9026C73.5332 28.6796 74.2382 28.9466 74.7802 29.7606Z" fill="black"/>
<path d="M55.8762 1.35863C56.0452 1.73863 56.1242 2.08462 55.9942 2.45762C55.8022 3.00562 55.2332 3.20263 54.7422 2.88963C54.6452 2.82863 54.5442 2.7546 54.4822 2.6616C53.9182 1.8256 53.0542 1.39263 52.2022 0.941633C52.0552 0.863633 51.8952 0.806615 51.7622 0.710615C51.4822 0.506615 51.5252 0.178626 51.8472 0.0526255C51.9522 0.0116255 52.0752 -0.00337642 52.1882 0.000623585C53.1432 0.0406236 54.0762 0.199625 54.9222 0.664625C55.2632 0.854625 55.5592 1.12563 55.8762 1.35863Z" fill="black"/>
<path d="M1.47716 47.9966C1.69316 48.5856 1.54014 49.1776 1.91014 49.6476C2.03914 49.6136 2.17716 49.5696 2.31816 49.5406C2.64516 49.4756 2.94314 49.5396 3.19414 49.7686C3.68514 50.2166 3.66316 51.2626 3.15416 51.6936C2.72216 52.0596 2.16316 51.9586 1.84816 51.4376C1.46416 50.8036 1.27915 50.0976 1.22115 49.3676C1.19315 49.0126 1.26714 48.6476 1.30614 48.2886C1.31414 48.2206 1.37916 48.1596 1.47716 47.9966Z" fill="black"/>
<path d="M66.8372 59.2616C66.8482 59.3666 66.8932 59.5466 66.8772 59.7216C66.8542 59.9836 66.6412 60.1766 66.4232 60.1676C66.1792 60.1576 66.0862 59.9896 66.0382 59.7806C66.0122 59.6676 65.9711 59.5556 65.9611 59.4416C65.9401 59.2046 66.0832 58.9986 66.2942 58.9496C66.5212 58.8976 66.6732 59.0116 66.8372 59.2616Z" fill="black"/>
<path d="M36.3252 19.0976C26.6022 19.7886 19.2802 28.2306 19.9712 37.9536C20.6622 47.6766 29.1042 54.9986 38.8272 54.3076C48.5502 53.6166 55.8722 45.1746 55.1812 35.4516C54.4902 25.7286 46.0482 18.4066 36.3252 19.0976ZM46.2322 43.9616C45.9172 44.5146 45.3142 44.7346 44.7602 44.4196C40.4422 42.1606 35.2102 42.0016 29.1492 43.8486C28.5452 44.0686 27.9862 43.6656 27.7722 43.1506C27.5522 42.5466 27.9552 41.9876 28.4702 41.7736C35.0542 39.8016 40.9072 40.0046 45.6852 42.4966C46.3202 42.7166 46.4582 43.4146 46.2322 43.9616ZM48.0002 38.9696C47.6042 39.6176 46.8312 39.9376 46.1832 39.5416C41.2232 36.9746 33.9432 36.6076 28.5222 38.7616C27.8302 38.9876 27.0132 38.6916 26.7872 38.0006C26.5612 37.3086 26.8572 36.4916 27.5482 36.2656C33.8362 33.8726 41.8272 34.2776 47.5232 37.2346C48.0702 37.4606 48.3972 38.3226 48.0002 38.9696ZM47.8262 34.0276C41.9552 31.0836 32.5112 31.4006 27.2602 33.4546C26.3992 33.7816 25.4812 33.3156 25.1602 32.5426C24.8332 31.6816 25.2992 30.7636 26.0722 30.4426C32.1902 28.1496 42.5142 27.7706 49.3042 31.1806C50.1272 31.5646 50.4662 32.6016 50.0832 33.4256C49.6872 34.0726 48.6492 34.4116 47.8262 34.0276Z" fill="white"/>
</svg>
