<svg width="77" height="71" viewBox="0 0 77 71" fill="none" xmlns="http://www.w3.org/2000/svg">
<path d="M27.9147 7.41289C28.3807 7.31289 29.0597 7.15187 29.7447 7.02687C30.0967 6.96287 30.4097 6.84187 30.7057 6.64387C31.2297 6.29287 31.7617 5.95386 32.2917 5.61186C33.3247 4.94486 34.4687 4.56288 35.6567 4.28688C37.2627 3.91488 38.8937 3.73087 40.5367 3.62987C43.0807 3.47287 45.4057 4.12587 47.5207 5.53487C48.7127 6.32987 49.8397 7.20586 50.7527 8.32286C50.9217 8.52986 51.1277 8.57188 51.3607 8.60188C52.7057 8.77588 54.0077 9.10387 55.1977 9.77287C57.3797 10.9989 59.1587 12.6629 60.5267 14.7609C61.4977 16.2499 62.2007 17.8549 62.5777 19.5939C62.6787 20.0619 62.8737 20.4529 63.1917 20.8159C64.6037 22.4279 65.6687 24.2669 66.5807 26.1929C68.1877 29.5899 68.9007 33.1719 68.6717 36.9269C68.5487 38.9509 67.9107 40.8279 66.9627 42.6079C66.6667 43.1649 66.3757 43.7259 66.0647 44.2739C65.8707 44.6169 65.8457 44.9369 65.9917 45.3139C66.5537 46.7699 66.6637 48.2839 66.5037 49.8249C66.3657 51.1439 65.9007 52.3369 65.1167 53.4049C63.7297 55.2959 62.1037 56.9389 60.1397 58.2359C59.7947 58.4639 59.4547 58.7079 59.1467 58.9829C57.4797 60.4699 55.5637 61.4949 53.4077 62.0589C52.6387 62.2599 51.8477 62.3769 51.0737 62.5619C50.7737 62.6339 50.4787 62.7599 50.2057 62.9079C49.4177 63.3329 48.6547 63.8069 47.8577 64.2149C46.6427 64.8379 45.3357 65.1419 43.9727 65.1869C42.1967 65.2459 40.4207 65.2809 38.6517 65.0269C38.2957 64.9759 37.9217 65.0029 37.5607 65.0369C35.9057 65.1969 34.2507 65.3059 32.5877 65.1879C30.5097 65.0399 28.5567 64.4559 26.6427 63.6409C22.9937 62.0859 20.0237 59.6829 17.5587 56.6149C16.8407 55.7219 16.4057 54.7169 16.4207 53.5509C16.4237 53.2969 16.3047 53.1119 16.1557 52.9269C15.5197 52.1389 14.8937 51.3419 14.2537 50.5569C11.8927 47.6589 10.3007 44.3459 9.08472 40.8449C8.73272 39.8319 8.57671 38.7509 8.32271 37.7029C8.20571 37.2209 8.13072 36.7139 7.92472 36.2709C7.00272 34.2849 6.80571 32.2009 6.90671 30.0459C7.06071 26.7869 8.33073 24.0079 10.4107 21.5529C11.2177 20.6009 12.0837 19.7079 13.0527 18.9189C13.4557 18.5909 13.7847 18.2049 14.1047 17.7979C14.6987 17.0409 15.2867 16.2709 15.9587 15.5849C17.1657 14.3509 18.3737 13.1069 19.6867 11.9909C22.0577 9.97986 24.6957 8.39289 27.9147 7.41289ZM54.7377 38.7839C54.7777 38.7149 54.8467 38.6489 54.8547 38.5759C55.0037 37.2399 55.1537 35.9049 55.2857 34.5669C55.3387 34.0279 55.2177 33.5129 54.9897 33.0199C53.4437 29.6689 51.5377 26.5519 49.0107 23.8399C48.9257 23.7489 48.8227 23.6759 48.7187 23.5869C48.4797 23.8759 48.6817 24.0409 48.8247 24.2129C50.0947 25.7289 51.2567 27.3219 52.3207 28.9909C54.2327 31.9889 54.8347 35.3029 54.7507 38.7949C54.5997 40.2929 54.1947 41.7199 53.5557 43.0829C52.9997 44.2699 52.4037 45.4339 51.6537 46.5129C51.5777 46.6219 51.5217 46.7449 51.4567 46.8609C52.2587 46.2949 52.8207 45.5379 53.4047 44.7959C53.9957 44.0459 54.3647 43.2369 54.4387 42.2679C54.5127 41.2949 54.6927 40.3309 54.8067 39.3609C54.8297 39.1739 54.7637 38.9759 54.7377 38.7839ZM12.7207 35.0799C12.7737 35.0989 12.8257 35.1179 12.8787 35.1369C12.8957 35.0389 12.8957 34.9339 12.9337 34.8449C13.5647 33.3459 14.2027 31.8499 14.8297 30.3499C14.9117 30.1539 14.9657 29.9389 14.9897 29.7279C15.3287 26.7179 16.3697 23.9659 17.9997 21.4229C18.9327 19.9659 19.9487 18.5749 21.0927 17.2759C21.2347 17.1149 21.4087 16.9679 21.4427 16.7269C21.2357 16.8439 21.0537 16.9819 20.8867 17.1359C19.5137 18.3989 18.2377 19.7519 17.2417 21.3369C16.4557 22.5869 15.7167 23.8669 14.9777 25.1459C13.2767 28.0909 12.6957 31.3109 12.6787 34.6649C12.6767 34.8019 12.7057 34.9409 12.7207 35.0799ZM63.4017 23.6499C63.3657 23.6999 63.3277 23.7269 63.3297 23.7509C63.4327 24.6199 63.4457 25.5019 63.7907 26.3319C64.4277 27.8669 64.9867 29.4319 65.2697 31.0739C65.5197 32.5269 65.7217 33.9899 65.8967 35.4549C66.0187 36.4749 66.0577 37.5049 66.1367 38.5309C66.1457 38.6509 66.1787 38.7689 66.2207 39.0029C66.3047 38.8049 66.3597 38.7219 66.3757 38.6309C66.5057 37.8639 66.6827 37.0999 66.7417 36.3269C66.9167 34.0379 66.5827 31.7939 66.0257 29.5779C65.5197 27.5639 64.6047 25.7249 63.6047 23.9229C63.5517 23.8259 63.4737 23.7439 63.4017 23.6499ZM30.8167 63.0899C30.8307 63.0559 30.8457 63.0219 30.8597 62.9869C30.7097 62.9229 30.5547 62.8689 30.4097 62.7929C29.7927 62.4689 29.1797 62.1379 28.5647 61.8109C27.7747 61.3919 26.9907 60.9589 26.1897 60.5599C25.2697 60.0999 24.3267 59.6859 23.4067 59.2249C21.2107 58.1229 19.3717 56.5599 17.7137 54.7679C17.5907 54.6349 17.4947 54.4559 17.2697 54.3889C17.6257 55.4899 20.1797 58.0839 22.3947 59.6219C24.8047 61.2939 29.3347 63.1589 30.8167 63.0899ZM35.8627 19.7149C35.8727 19.7529 35.8817 19.7909 35.8917 19.8299C36.0197 19.8399 36.1477 19.8569 36.2757 19.8589C38.4067 19.8949 40.5157 20.1429 42.6037 20.5599C43.1887 20.6769 43.7897 20.7829 44.3357 21.0089C44.8847 21.2349 45.2287 21.0059 45.6127 20.7139C45.5707 20.6609 45.5557 20.6259 45.5297 20.6109C43.9837 19.7009 42.3447 19.0389 40.5597 18.7879C40.2687 18.7469 39.9557 18.7449 39.6697 18.8029C38.5637 19.0279 37.4647 19.2819 36.3647 19.5329C36.1917 19.5709 36.0297 19.6529 35.8627 19.7149ZM52.7847 10.2239C52.7627 10.2689 52.7407 10.3139 52.7187 10.3589C53.0007 10.5859 53.2737 10.8249 53.5667 11.0379C55.4017 12.3729 56.9027 14.0179 58.1247 15.9229C58.2497 16.1179 58.3817 16.3099 58.5147 16.4999C58.8097 16.9219 59.8707 17.7979 60.3547 18.0229C60.3617 17.9929 60.3817 17.9599 60.3747 17.9339C60.3527 17.8539 60.3237 17.7759 60.2927 17.6999C59.2497 15.1419 57.5847 13.0789 55.3397 11.4789C54.7017 11.0239 54.0237 10.6419 53.2867 10.3709C53.1227 10.3099 52.9517 10.2719 52.7847 10.2239ZM21.0327 51.3409C21.0617 51.3139 21.0907 51.2859 21.1197 51.2589C21.0197 50.8429 20.6437 50.6109 20.4247 50.2739C20.2077 49.9409 19.9597 49.6279 19.7397 49.2959C19.5107 48.9509 19.2947 48.5959 19.0807 48.2409C18.8747 47.8999 18.6767 47.5549 18.4777 47.2099C18.2697 46.8509 18.0597 46.4939 17.8567 46.1319C17.6547 45.7699 17.4517 45.4079 17.2647 45.0379C17.0847 44.6829 16.9147 44.3219 16.7567 43.9579C16.5917 43.5779 16.4367 43.1929 16.2907 42.8049C16.1497 42.4329 16.0347 42.0509 15.8927 41.6789C15.7527 41.3129 15.7407 40.8949 15.4417 40.5759C15.3807 41.2769 15.3797 41.9689 15.3687 42.6619C15.3557 43.5509 15.6207 44.3439 16.0927 45.0999C17.4517 47.2759 19.1497 49.1879 20.7687 51.1609C20.8327 51.2419 20.9437 51.2829 21.0327 51.3409ZM47.1557 29.7539C46.9627 30.0139 47.1167 30.1779 47.2027 30.3409C47.7717 31.4219 48.0737 32.5619 47.9817 33.7909C47.9597 34.0859 48.0357 34.3449 48.1957 34.5909C48.4297 34.9529 48.6607 35.3179 48.8777 35.6909C49.4267 36.6359 49.6747 37.6569 49.5817 38.7469C49.5347 39.2919 49.4427 39.8329 49.3757 40.3759C49.3637 40.4729 49.3747 40.5729 49.3747 40.6709C50.2477 38.9679 50.1047 37.2009 49.8387 35.4109C49.5157 33.2569 48.4517 31.4759 47.1557 29.7539ZM55.7237 59.0449C55.7457 59.0729 55.7667 59.1009 55.7887 59.1289C55.8637 59.0999 55.9437 59.0789 56.0127 59.0389C57.1337 58.3979 58.2577 57.7609 59.3697 57.1039C59.5617 56.9899 59.7267 56.8039 59.8567 56.6179C60.2757 56.0209 60.6967 55.4239 61.0707 54.7989C61.6237 53.8749 62.1447 52.9309 62.6617 51.9859C62.8307 51.6769 62.9467 51.3379 62.9637 50.9749C61.8177 52.3739 60.7317 53.8089 59.5837 55.1919C58.4197 56.5939 57.0937 57.8429 55.7237 59.0449ZM32.7137 6.64186C32.7237 6.66886 32.7337 6.69686 32.7447 6.72386C33.3557 6.74386 33.9667 6.77989 34.5777 6.77489C34.8027 6.77289 35.0277 6.67687 35.2497 6.61687C35.7287 6.48587 36.2017 6.33288 36.6857 6.22188C37.1217 6.12188 37.5727 6.09186 38.0067 5.98686C38.8717 5.77686 39.7437 5.73087 40.6247 5.81187C41.9457 5.93287 43.2657 6.06088 44.5857 6.18388C44.6457 6.18988 44.7077 6.18088 44.8747 6.17488C44.6987 6.06188 44.6147 5.99187 44.5187 5.94987C43.8327 5.64487 43.1147 5.45186 42.3717 5.34486C41.0137 5.14986 39.6587 5.26787 38.3017 5.35887C36.5177 5.47687 34.7947 5.86986 33.1127 6.46086C32.9747 6.50786 32.8467 6.57986 32.7137 6.64186ZM24.5397 15.8349C24.5587 15.8559 24.5767 15.8779 24.5957 15.8989C24.7787 15.7699 24.9577 15.6349 25.1447 15.5129C26.1437 14.8609 27.1317 14.1909 28.1497 13.5699C28.7887 13.1809 29.5017 13.0499 30.2577 13.1789C30.4787 13.2169 30.7247 13.1959 30.9417 13.1369C31.3087 13.0379 31.6667 12.8999 32.0177 12.7519C32.1687 12.6889 32.2927 12.5599 32.4467 12.4479C32.1237 12.2129 32.1237 12.2159 31.7597 12.2239C30.3877 12.2539 29.0747 12.6279 27.7437 12.8969C27.3527 12.9759 27.0347 13.1499 26.7637 13.4389C26.1727 14.0669 25.5707 14.6839 24.9787 15.3099C24.8227 15.4769 24.6857 15.6599 24.5397 15.8349ZM46.2777 45.2259C45.8457 45.1999 45.4417 45.2219 45.0597 45.1409C44.7087 45.0669 44.4697 45.1319 44.2177 45.3829C43.4477 46.1499 42.5587 46.7479 41.5657 47.1989C41.3157 47.3119 41.0967 47.5019 40.8777 47.6759C40.6317 47.8709 40.4007 48.0849 40.1667 48.2959C40.1077 48.3499 40.0647 48.4229 39.9847 48.5249C41.4417 48.2379 45.7217 45.9859 46.2777 45.2259ZM37.1887 49.3329C37.0637 49.2839 37.0207 49.2539 36.9767 49.2519C35.5967 49.1919 34.3097 48.7949 33.0677 48.2109C32.8217 48.0949 32.5287 48.0519 32.2537 48.0319C31.6107 47.9829 30.9647 47.9669 30.3197 47.9419C30.2417 47.9389 30.1627 47.9679 29.9757 48.0009C32.2807 49.2719 34.5827 49.8889 37.1887 49.3329ZM20.5707 38.5649C20.6057 38.3049 20.6357 38.1309 20.6517 37.9559C20.8047 36.2719 20.9737 34.5909 21.4817 32.9659C21.5237 32.8319 21.5387 32.6579 21.4907 32.5319C21.3277 32.1059 21.1317 31.6929 20.9457 31.2709C20.3527 32.0139 20.0807 36.9509 20.5707 38.5649ZM65.0887 47.2729C64.7807 47.6829 64.5297 48.1049 64.5237 48.6259C64.5047 50.2849 64.1007 51.8399 63.2637 53.2789C63.2157 53.3609 63.2047 53.4639 63.1447 53.6589C64.9927 51.8069 65.4587 49.6619 65.0887 47.2729ZM41.0387 53.3169C41.0847 53.3259 41.1327 53.3499 41.1757 53.3429C42.0257 53.2079 42.8797 53.0899 43.7227 52.9189C43.9637 52.8699 44.2117 52.7059 44.3917 52.5289C45.1187 51.8119 45.9457 51.2459 46.8467 50.7709C47.2847 50.5399 47.7017 50.2669 48.1207 50.0019C48.2467 49.9219 48.3487 49.8039 48.4607 49.7029C46.0907 51.1379 43.5987 52.2789 41.0387 53.3169ZM41.7897 25.2429C40.6587 24.8209 36.5777 24.4299 35.9017 24.7079C37.8627 24.8739 39.6537 25.3869 41.4377 26.0419C41.5667 25.7469 41.6717 25.5099 41.7897 25.2429ZM11.0007 22.7179C9.44772 23.9519 7.82073 28.7279 8.32873 30.3649C8.65273 29.0879 8.95573 27.7649 9.32873 26.4609C9.70773 25.1409 10.3457 23.9239 11.0007 22.7179ZM28.0837 25.3459C27.6397 25.4339 27.2717 25.5009 26.9067 25.5839C26.8347 25.5999 26.7507 25.6649 26.7167 25.7299C26.4977 26.1529 26.3327 26.5949 26.2227 27.1709C26.5867 26.9849 26.8447 26.7969 27.1327 26.7159C27.7917 26.5329 27.9657 26.0359 28.0837 25.3459ZM27.1677 45.8249C27.0587 45.3539 26.6047 44.8179 25.9537 44.3729C26.2477 44.9129 26.6277 45.3809 27.1677 45.8249ZM47.6167 22.8519C47.7617 22.4459 47.6927 22.3259 47.2127 22.0929C47.0967 22.5309 47.1017 22.5409 47.6167 22.8519ZM34.2557 24.8239C33.7277 24.7349 33.6707 24.7559 33.4507 25.1119C33.7567 25.0019 34.0057 24.9129 34.2557 24.8239ZM60.9857 20.5009C60.9597 20.5239 60.9327 20.5479 60.9067 20.5709C60.9517 20.6199 60.9977 20.6679 61.0427 20.7169C61.0627 20.7009 61.0817 20.6849 61.1007 20.6699C61.0627 20.6129 61.0247 20.5569 60.9857 20.5009Z" fill="black"/>
<path d="M68.2988 18.0319C68.4948 18.7089 68.3218 19.2949 67.8738 19.6499C67.4298 20.0009 66.8168 20.0279 66.2838 19.7199C65.8668 19.4789 65.5688 19.1189 65.3478 18.7069C64.7528 17.5949 64.1708 16.4749 63.6008 15.3499C63.1058 14.3729 62.6828 13.3559 62.1418 12.4059C61.0898 10.5569 59.6598 9.09686 57.6458 8.27286C56.8778 7.95886 56.1348 7.58585 55.3878 7.22385C54.7628 6.92085 54.2358 6.47986 53.8688 5.89286C53.0528 4.59086 51.8818 3.62585 50.7908 2.58585C50.4698 2.27985 50.0738 2.05185 49.7108 1.78885C49.6168 1.72085 49.5088 1.66886 49.4248 1.59086C49.1038 1.29086 49.1868 0.856867 49.6058 0.734867C49.8058 0.676867 50.0368 0.675867 50.2448 0.708867C52.2358 1.02387 54.0338 1.74287 55.3348 3.35987C55.9588 4.13587 56.6808 4.71886 57.6378 5.01386C58.0008 5.12586 58.3408 5.31487 58.6998 5.44187C60.6868 6.14187 62.2518 7.41885 63.6068 8.99085C64.4618 9.98285 65.0888 11.1089 65.6158 12.2989C66.2348 13.6949 66.8598 15.0889 67.4938 16.4789C67.6588 16.8409 67.8688 17.1818 68.0538 17.5338C68.1538 17.7238 68.2438 17.9199 68.2988 18.0319Z" fill="black"/>
<path d="M48.7417 69.7319C46.0517 70.4959 43.3287 70.7449 40.5577 70.3409C39.5417 70.1929 38.5317 69.9989 37.5197 69.8279C37.4057 69.8089 37.2777 69.7619 37.1777 69.7949C36.9577 69.8669 36.8387 69.7449 36.7007 69.6209C36.2297 69.1969 36.2937 68.7409 36.8917 68.5299C37.8137 68.2039 38.7387 67.8809 39.6817 67.6249C40.1687 67.4929 40.7017 67.4369 41.2057 67.4699C44.2977 67.6679 47.2017 66.9609 50.0037 65.7229C50.3527 65.5689 50.7027 65.4139 51.0647 65.2939C51.5977 65.1169 52.1157 65.1649 52.5817 65.5029C53.3847 66.0849 53.4437 67.2289 52.7057 67.9369C52.2787 68.3469 51.7547 68.6039 51.2137 68.8169C50.3967 69.1369 49.5667 69.4279 48.7417 69.7319Z" fill="black"/>
<path d="M70.3238 46.0329C70.6998 47.4219 70.7898 48.8089 70.5578 50.2319C70.2488 52.1249 69.6538 53.8999 68.6058 55.5149C67.8558 56.6699 67.1228 57.8359 66.3628 58.9839C66.2018 59.2259 65.9768 59.4419 65.7408 59.6139C65.3858 59.8719 64.9878 59.8649 64.6208 59.6209C64.2698 59.3879 64.1188 59.0259 64.2008 58.6259C64.2628 58.3249 64.3968 58.0269 64.5548 57.7609C65.1718 56.7189 65.8058 55.6869 66.4428 54.6559C67.5038 52.9379 68.1718 51.0779 68.5088 49.0909C68.5888 48.6169 68.7048 48.1489 68.8168 47.6819C69.0578 46.6719 69.1798 45.6579 68.9578 44.6269C68.9438 44.5619 68.9318 44.4949 68.9348 44.4299C68.9468 44.1499 69.1428 44.0399 69.3738 44.2079C69.5158 44.3109 69.6458 44.4619 69.7198 44.6199C69.9368 45.0829 70.1248 45.5609 70.3238 46.0329Z" fill="black"/>
<path d="M21.9168 8.07485C21.6328 8.30685 21.2958 8.42284 20.9298 8.38484C20.6028 8.35084 20.3568 8.14183 20.3318 7.80983C20.3088 7.50383 20.3248 7.17184 20.4218 6.88484C20.7318 5.97284 21.2688 5.19686 21.9878 4.55486C23.0908 3.57086 24.3658 2.86385 25.7138 2.28285C27.8558 1.35885 30.0888 0.714833 32.3538 0.180833C32.8348 0.0678332 33.3378 0.0338547 33.8328 0.00285472C34.1868 -0.0191453 34.5248 0.0858386 34.8038 0.323839C35.3138 0.758839 35.2078 1.38883 34.5808 1.61183C34.4118 1.67183 34.2238 1.67684 34.0448 1.70784C33.3918 1.81884 32.7208 1.86885 32.0898 2.05385C30.1308 2.62785 28.1758 3.22184 26.2398 3.87084C24.7018 4.38584 23.2918 5.16884 22.0678 6.24684C21.7348 6.53984 21.4608 6.90083 21.1718 7.24083C21.0888 7.33883 21.0348 7.46983 20.9928 7.59483C20.8718 7.94883 21.0108 8.10983 21.3718 8.04283C21.5408 8.01183 21.7088 7.96984 21.8768 7.93184C21.8908 7.97984 21.9038 8.02685 21.9168 8.07485Z" fill="black"/>
<path d="M7.6218 48.7239C7.5038 48.1549 7.36779 47.5889 7.27579 47.0159C7.22379 46.6919 7.22779 46.3549 7.24379 46.0249C7.25179 45.8679 7.32378 45.7029 7.40478 45.5629C7.50278 45.3919 7.68079 45.2999 7.87279 45.3729C8.05879 45.4439 8.1638 45.5639 8.1758 45.8169C8.1898 46.0989 8.3038 46.3999 8.4518 46.6449C8.7598 47.1549 9.11679 47.6369 9.45879 48.1259C9.65779 48.4119 9.89379 48.6759 10.0678 48.9759C10.4758 49.6809 11.0548 50.2199 11.6728 50.7289C11.9678 50.9719 12.2648 51.2129 12.5408 51.4749C12.7988 51.7199 12.9738 52.0179 12.9808 52.3929C12.9928 52.9809 12.5848 53.4369 12.0018 53.4079C11.7338 53.3939 11.4298 53.3119 11.2148 53.1579C10.5678 52.6949 9.92779 52.2129 9.33679 51.6819C8.30579 50.7549 7.9768 50.1339 7.6218 48.7239Z" fill="black"/>
<path d="M5.82179 16.4649C5.17579 16.6559 4.69978 16.2289 4.83778 15.6709C4.88778 15.4709 5.00579 15.2699 5.14079 15.1109C6.67179 13.3179 8.20879 11.5299 9.75279 9.74687C9.98779 9.47487 10.2238 9.17986 10.6638 9.23686C10.7518 9.24786 10.8598 9.13188 10.9538 9.06688C11.1728 8.91588 11.3748 8.73686 11.6088 8.61586C11.8098 8.51186 12.0418 8.43786 12.2658 8.41386C12.6128 8.37686 12.8038 8.58187 12.7498 8.93187C12.7178 9.13887 12.6308 9.34688 12.5228 9.52888C12.4238 9.69688 12.2788 9.84586 12.1298 9.97386C10.1458 11.6809 8.44179 13.6559 6.70779 15.6029C6.53079 15.8009 6.36679 16.0119 6.17779 16.1979C6.05279 16.3209 5.89279 16.4129 5.82179 16.4649Z" fill="black"/>
<path d="M76.2138 37.9868C76.6328 39.2108 75.7188 41.1378 73.7398 40.6848C73.1708 40.5548 72.7538 40.2299 72.4898 39.7129C72.0568 38.8659 72.1398 37.5639 73.0668 37.0009C73.2308 36.9009 73.3198 36.6679 73.4288 36.4879C73.6288 36.1589 73.7228 36.1488 74.0248 36.4048C74.1018 36.4708 74.2208 36.5128 74.3228 36.5208C75.3318 36.5918 75.9298 37.0508 76.2138 37.9868Z" fill="black"/>
<path d="M66.3098 5.33887C66.3618 5.75087 66.3378 6.10586 66.1058 6.42486C65.7648 6.89386 65.1618 6.91784 64.7818 6.47784C64.7068 6.39084 64.6308 6.29184 64.5978 6.18484C64.2998 5.22184 63.5958 4.55786 62.9108 3.88086C62.7928 3.76386 62.6558 3.66387 62.5558 3.53287C62.3458 3.25687 62.4828 2.95485 62.8268 2.92685C62.9388 2.91785 63.0608 2.93886 63.1678 2.97586C64.0708 3.28986 64.9178 3.71087 65.5948 4.39987C65.8688 4.67787 66.0738 5.02387 66.3098 5.33887Z" fill="black"/>
<path d="M0.766767 34.2939C0.802767 34.9199 0.486771 35.4428 0.704771 35.9998C0.837771 36.0038 0.982776 36.0019 1.12578 36.0159C1.45778 36.0479 1.72477 36.1948 1.89877 36.4868C2.23977 37.0568 1.91678 38.0528 1.30478 38.3188C0.785777 38.5448 0.279766 38.2859 0.128766 37.6969C-0.0552335 36.9789 -0.0292242 36.2498 0.125776 35.5338C0.201776 35.1848 0.376766 34.8579 0.518766 34.5249C0.546766 34.4619 0.626767 34.4219 0.766767 34.2939Z" fill="black"/>
<path d="M60.0958 63.9408C60.0758 64.0438 60.0668 64.2298 60.0018 64.3928C59.9038 64.6368 59.6448 64.7599 59.4378 64.6889C59.2078 64.6089 59.1658 64.4208 59.1808 64.2068C59.1888 64.0908 59.1808 63.9718 59.2048 63.8598C59.2528 63.6268 59.4498 63.4708 59.6648 63.4848C59.8978 63.5008 60.0108 63.6538 60.0958 63.9408Z" fill="black"/>
<path d="M54.8961 27.6125C54.6001 27.6421 54.3041 27.6559 54.0082 27.6578C50.7566 27.6578 47.724 26.0182 45.9423 23.2994V38.1427C45.9423 44.2019 41.0294 49.1148 34.9721 49.1148C28.9129 49.1148 24 44.2039 24 38.1427C24 32.0834 28.9129 27.1705 34.9721 27.1705C35.201 27.1705 35.424 27.1902 35.6509 27.206V32.6122C35.426 32.5846 35.2049 32.5431 34.9721 32.5431C31.8803 32.5431 29.3726 35.0509 29.3726 38.1427C29.3726 41.2344 31.8803 43.7422 34.9721 43.7422C38.0659 43.7422 40.7966 41.3055 40.7966 38.2117L40.8499 13H46.0212C46.5086 17.6387 50.2495 21.2612 54.9 21.6006V27.6085" fill="white"/>
</svg>
