<svg width="48" height="48" viewBox="0 0 48 48" fill="none" xmlns="http://www.w3.org/2000/svg">
<path d="M38.958 47.427H8.469C3.792 47.427 0 43.635 0 38.958V8.46901C0 3.79201 3.792 0 8.469 0H38.958C43.635 0 47.427 3.79201 47.427 8.46901V38.958C47.427 43.635 43.636 47.427 38.958 47.427Z" fill="#222221"/>
<path d="M35.2429 21.5199C35.0298 21.5412 34.8167 21.5511 34.6037 21.5526C32.2628 21.5526 30.0795 20.3722 28.7968 18.4148V29.1009C28.7968 33.4631 25.2599 37 20.8991 37C16.5369 37 13 33.4645 13 29.1009C13 24.7386 16.5369 21.2017 20.8991 21.2017C21.0639 21.2017 21.2244 21.2159 21.3878 21.2273V25.1193C21.2258 25.0994 21.0667 25.0696 20.8991 25.0696C18.6733 25.0696 16.8679 26.875 16.8679 29.1009C16.8679 31.3267 18.6733 33.1321 20.8991 33.1321C23.1264 33.1321 25.0923 31.3778 25.0923 29.1506L25.1306 11H28.8537C29.2045 14.3395 31.8977 16.9474 35.2457 17.1918V21.517" fill="white"/>
</svg>
