<svg width="23" height="26" viewBox="0 0 23 26" fill="none" xmlns="http://www.w3.org/2000/svg">
<path d="M22.2429 10.5199C22.0298 10.5412 21.8167 10.5511 21.6037 10.5526C19.2628 10.5526 17.0795 9.37216 15.7968 7.41477V18.1009C15.7968 22.4631 12.2599 26 7.89911 26C3.53689 26 0 22.4645 0 18.1009C0 13.7386 3.53689 10.2017 7.89911 10.2017C8.06388 10.2017 8.22443 10.2159 8.38778 10.2273V14.1193C8.22585 14.0994 8.06672 14.0696 7.89911 14.0696C5.67326 14.0696 3.86789 15.875 3.86789 18.1009C3.86789 20.3267 5.67326 22.1321 7.89911 22.1321C10.1264 22.1321 12.0923 20.3778 12.0923 18.1506L12.1306 0H15.8537C16.2045 3.33949 18.8977 5.94744 22.2457 6.19176V10.517" fill="white"/>
</svg>
