<svg width="38" height="27" viewBox="0 0 38 27" fill="none" xmlns="http://www.w3.org/2000/svg">
<path d="M37.165 4.17599C36.729 2.53199 35.442 1.238 33.809 0.798004C30.849 4.17233e-06 18.979 0 18.979 0C18.979 0 7.10899 4.17233e-06 4.14899 0.798004C2.51599 1.237 1.23 2.53199 0.792999 4.17599C-7.15256e-07 7.15499 0 13.371 0 13.371C0 13.371 -7.15256e-07 19.587 0.792999 22.566C1.23 24.21 2.51599 25.504 4.14899 25.944C7.10899 26.742 18.979 26.742 18.979 26.742C18.979 26.742 30.848 26.742 33.809 25.944C35.442 25.505 36.728 24.21 37.165 22.566C37.958 19.587 37.958 13.371 37.958 13.371C37.958 13.371 37.959 7.15499 37.165 4.17599Z" fill="white"/>
<path d="M15.098 19.015V7.72702L25.019 13.371L15.098 19.015Z" fill="black"/>
</svg>
