<svg width="48" height="48" viewBox="0 0 48 48" fill="none" xmlns="http://www.w3.org/2000/svg">
<path d="M38.958 47.427H8.46899C3.79199 47.427 0 43.635 0 38.958V8.46899C0 3.79199 3.79199 0 8.46899 0H38.958C43.635 0 47.427 3.79199 47.427 8.46899V38.958C47.427 43.635 43.635 47.427 38.958 47.427Z" fill="#222221"/>
<path d="M41.898 14.518C41.462 12.874 40.175 11.58 38.542 11.14C35.582 10.342 23.712 10.342 23.712 10.342C23.712 10.342 11.842 10.342 8.88202 11.14C7.24902 11.579 5.96303 12.874 5.52603 14.518C4.73303 17.497 4.73303 23.713 4.73303 23.713C4.73303 23.713 4.73303 29.929 5.52603 32.908C5.96303 34.552 7.24902 35.846 8.88202 36.286C11.842 37.084 23.712 37.084 23.712 37.084C23.712 37.084 35.581 37.084 38.542 36.286C40.175 35.847 41.461 34.552 41.898 32.908C42.691 29.929 42.691 23.713 42.691 23.713C42.691 23.713 42.692 17.497 41.898 14.518Z" fill="white"/>
<path d="M19.8311 29.357V18.069L29.7521 23.713L19.8311 29.357Z" fill="#222221"/>
</svg>
