<svg width="75" height="74" viewBox="0 0 75 74" fill="none" xmlns="http://www.w3.org/2000/svg">
<path d="M64.4457 42.569C64.2267 42.992 63.9197 43.618 63.5807 44.227C63.4067 44.54 63.3007 44.858 63.2657 45.212C63.2037 45.84 63.1267 46.466 63.0547 47.092C62.9127 48.313 62.4807 49.44 61.9387 50.532C61.2057 52.009 60.3097 53.384 59.3437 54.717C57.8487 56.78 55.8657 58.161 53.4337 58.897C52.0627 59.312 50.6697 59.625 49.2267 59.619C48.9597 59.618 48.7957 59.751 48.6247 59.911C47.6357 60.838 46.5547 61.635 45.2827 62.128C42.9497 63.033 40.5347 63.349 38.0437 63.071C36.2767 62.874 34.5917 62.397 33.0087 61.582C32.5827 61.363 32.1577 61.264 31.6747 61.279C29.5327 61.344 27.4357 60.998 25.3697 60.477C21.7257 59.559 18.5077 57.832 15.7537 55.268C14.2697 53.886 13.2257 52.2 12.4537 50.338C12.2117 49.755 11.9637 49.175 11.7387 48.585C11.5977 48.217 11.3657 47.995 10.9827 47.868C9.50168 47.376 8.26268 46.499 7.17468 45.395C6.24468 44.451 5.61868 43.333 5.29268 42.049C4.71468 39.777 4.47968 37.477 4.72668 35.135C4.76968 34.724 4.79768 34.306 4.78068 33.893C4.69268 31.66 5.11868 29.53 6.05368 27.507C6.38668 26.785 6.79968 26.1 7.14868 25.385C7.28368 25.108 7.37368 24.799 7.43368 24.495C7.60668 23.616 7.72568 22.726 7.91668 21.852C8.20868 20.518 8.80468 19.316 9.63568 18.235C10.7197 16.826 11.8217 15.433 13.1417 14.229C13.4077 13.987 13.6247 13.681 13.8267 13.38C14.7547 12.001 15.7227 10.654 16.8707 9.446C18.3057 7.936 19.9977 6.79899 21.8437 5.83999C25.3637 4.01099 29.1057 3.24599 33.0417 3.29299C34.1877 3.30699 35.2397 3.60899 36.1307 4.36199C36.3247 4.52599 36.5437 4.55201 36.7807 4.55401C37.7937 4.56401 38.8067 4.587 39.8197 4.592C43.5577 4.612 47.1267 5.48798 50.6037 6.77498C51.6097 7.14698 52.5427 7.714 53.5137 8.183C53.9607 8.399 54.3987 8.663 54.8727 8.786C56.9917 9.336 58.7267 10.509 60.3257 11.957C62.7447 14.147 64.0817 16.895 64.6557 20.061C64.8777 21.289 65.0167 22.526 65.0097 23.775C65.0067 24.294 65.0947 24.794 65.2067 25.3C65.4137 26.24 65.6337 27.183 65.7367 28.137C65.9217 29.853 66.1147 31.577 66.1407 33.299C66.1877 36.416 65.7357 39.462 64.4457 42.569ZM23.1787 43.336C23.2067 43.411 23.2137 43.506 23.2647 43.559C24.2007 44.523 25.1367 45.488 26.0847 46.44C26.4667 46.824 26.9417 47.057 27.4667 47.195C31.0367 48.132 34.6547 48.642 38.3547 48.415C38.4787 48.407 38.6007 48.374 38.7357 48.35C38.6637 47.982 38.4087 48.032 38.1857 48.034C36.2077 48.051 34.2397 47.935 32.2757 47.696C28.7457 47.266 25.8047 45.624 23.1627 43.34C22.1017 42.271 21.2587 41.051 20.6117 39.692C20.0487 38.508 19.5297 37.308 19.1727 36.043C19.1367 35.915 19.0777 35.794 19.0297 35.67C18.9567 36.649 19.1847 37.564 19.3857 38.486C19.5897 39.419 19.9787 40.218 20.6797 40.891C21.3837 41.567 22.0137 42.318 22.6897 43.023C22.8197 43.159 23.0137 43.233 23.1787 43.336ZM52.7467 13.253C52.6987 13.282 52.6507 13.31 52.6027 13.339C52.6667 13.415 52.7487 13.481 52.7937 13.567C53.5507 15.007 54.2987 16.45 55.0587 17.888C55.1577 18.076 55.2897 18.254 55.4377 18.407C57.5457 20.582 59.0087 23.135 59.9357 26.01C60.4667 27.656 60.8957 29.325 61.1707 31.033C61.2047 31.244 61.2077 31.473 61.3717 31.652C61.4127 31.418 61.4217 31.189 61.4097 30.962C61.3077 29.099 61.0747 27.254 60.4837 25.478C60.0177 24.077 59.5007 22.692 58.9827 21.309C57.7907 18.124 55.6737 15.628 53.0957 13.484C52.9887 13.396 52.8627 13.33 52.7467 13.253ZM29.3547 59.644C29.3397 59.584 29.3417 59.537 29.3227 59.525C28.5867 59.052 27.8977 58.502 27.0377 58.24C25.4477 57.756 23.8847 57.193 22.4377 56.367C21.1567 55.636 19.8997 54.862 18.6577 54.066C17.7927 53.512 16.9727 52.887 16.1307 52.296C16.0317 52.227 15.9197 52.176 15.7137 52.061C15.8127 52.251 15.8417 52.348 15.9027 52.417C16.4127 53.005 16.8897 53.627 17.4487 54.164C19.1047 55.755 21.0487 56.923 23.1137 57.901C24.9897 58.79 26.9917 59.253 29.0187 59.626C29.1237 59.648 29.2357 59.639 29.3547 59.644ZM19.6197 9.419C19.6367 9.452 19.6547 9.48499 19.6717 9.51699C19.8167 9.44199 19.9577 9.35599 20.1077 9.29299C20.7497 9.02299 21.3957 8.76 22.0387 8.493C22.8647 8.149 23.6967 7.81901 24.5147 7.45501C25.4547 7.03701 26.3737 6.572 27.3147 6.156C29.5617 5.161 31.9367 4.73498 34.3737 4.59398C34.5547 4.58398 34.7537 4.62399 34.9487 4.49199C33.8727 4.06699 30.2467 4.39 27.6507 5.122C24.8287 5.919 20.5087 8.23 19.6197 9.419ZM49.8967 40.886C49.8607 40.869 49.8257 40.852 49.7897 40.836C49.7007 40.928 49.6067 41.016 49.5237 41.114C48.1417 42.737 46.6087 44.206 44.9607 45.554C44.4987 45.932 44.0347 46.327 43.5137 46.606C42.9897 46.886 42.9487 47.297 42.9297 47.78C42.9977 47.781 43.0337 47.792 43.0617 47.781C44.7467 47.166 46.2997 46.322 47.6287 45.103C47.8457 44.904 48.0457 44.664 48.1827 44.406C48.7117 43.41 49.2147 42.399 49.7197 41.39C49.7987 41.23 49.8387 41.054 49.8967 40.886ZM46.4677 59.982C46.4467 59.936 46.4267 59.891 46.4057 59.845C46.0507 59.918 45.6927 59.977 45.3427 60.068C43.1457 60.636 40.9227 60.749 38.6747 60.482C38.4437 60.455 38.2127 60.435 37.9807 60.416C37.4677 60.375 36.1167 60.637 35.6347 60.869C35.6537 60.894 35.6667 60.93 35.6917 60.941C35.7667 60.975 35.8457 61.002 35.9247 61.026C38.5627 61.846 41.2127 61.873 43.8757 61.157C44.6327 60.954 45.3587 60.673 46.0357 60.276C46.1857 60.188 46.3237 60.08 46.4677 59.982ZM34.9087 9.334C34.9117 9.374 34.9147 9.41299 34.9167 9.45299C35.3007 9.63999 35.7197 9.49799 36.1187 9.54299C36.5137 9.58699 36.9137 9.59501 37.3087 9.63601C37.7207 9.67901 38.1317 9.73699 38.5417 9.79699C38.9357 9.85399 39.3277 9.92198 39.7207 9.98598C40.1297 10.053 40.5397 10.118 40.9477 10.192C41.3557 10.266 41.7637 10.34 42.1687 10.43C42.5567 10.516 42.9437 10.615 43.3257 10.724C43.7237 10.838 44.1197 10.964 44.5117 11.097C44.8887 11.225 45.2567 11.378 45.6337 11.505C46.0047 11.63 46.3357 11.885 46.7717 11.858C46.2697 11.366 45.7357 10.924 45.2077 10.476C44.5297 9.9 43.7497 9.60101 42.8647 9.48501C40.3207 9.15101 37.7657 9.24599 35.2127 9.24199C35.1127 9.24299 35.0107 9.302 34.9087 9.334ZM34.9687 43.222C34.8907 42.908 34.6667 42.922 34.4857 42.885C33.2897 42.637 32.2177 42.146 31.3277 41.293C31.1147 41.089 30.8657 40.983 30.5737 40.949C30.1457 40.9 29.7167 40.846 29.2907 40.776C28.2127 40.599 27.2667 40.142 26.4837 39.376C26.0927 38.994 25.7337 38.579 25.3577 38.182C25.2907 38.111 25.2067 38.056 25.1307 37.994C25.8907 39.75 27.3457 40.763 28.8967 41.695C30.7647 42.818 32.8157 43.128 34.9687 43.222ZM6.91168 31.217C6.87668 31.216 6.84068 31.215 6.80568 31.214C6.78068 31.291 6.74568 31.365 6.73268 31.444C6.51468 32.717 6.29168 33.99 6.09268 35.266C6.05868 35.487 6.09768 35.733 6.15868 35.951C6.35368 36.654 6.54668 37.359 6.79068 38.045C7.15268 39.059 7.55068 40.061 7.95068 41.061C8.08168 41.388 8.26968 41.693 8.53868 41.936C8.18668 40.162 7.76968 38.411 7.43168 36.646C7.08868 34.857 6.96768 33.039 6.91168 31.217ZM61.9917 46.764C61.9637 46.755 61.9367 46.745 61.9087 46.735C61.5047 47.194 61.0887 47.643 60.7037 48.118C60.5627 48.293 60.4927 48.527 60.3987 48.738C60.1947 49.191 60.0127 49.654 59.7907 50.097C59.5907 50.497 59.3267 50.865 59.1317 51.267C58.7437 52.068 58.2257 52.771 57.6027 53.4C56.6697 54.342 55.7317 55.281 54.7977 56.222C54.7547 56.265 54.7227 56.318 54.6217 56.451C54.8207 56.387 54.9277 56.366 55.0217 56.319C55.6937 55.983 56.2987 55.551 56.8537 55.046C57.8677 54.122 58.6377 53 59.4307 51.895C60.4727 50.443 61.2657 48.863 61.8787 47.189C61.9287 47.051 61.9547 46.906 61.9917 46.764ZM60.0897 34.61C60.0617 34.611 60.0327 34.612 60.0047 34.613C59.9877 34.836 59.9787 35.06 59.9537 35.283C59.8217 36.468 59.7107 37.657 59.5437 38.837C59.4387 39.578 59.0867 40.212 58.5057 40.713C58.3367 40.859 58.1957 41.063 58.1027 41.267C57.9457 41.613 57.8247 41.978 57.7157 42.342C57.6687 42.499 57.6887 42.676 57.6777 42.866C58.0647 42.766 58.0617 42.764 58.2877 42.478C59.1367 41.4 59.6827 40.149 60.3217 38.95C60.5097 38.598 60.5767 38.242 60.5267 37.849C60.4177 36.994 60.3247 36.137 60.2167 35.281C60.1867 35.056 60.1327 34.834 60.0897 34.61ZM23.5837 32.709C23.8777 32.392 24.1187 32.067 24.4237 31.823C24.7037 31.599 24.8057 31.373 24.7717 31.02C24.6687 29.938 24.7727 28.871 25.0557 27.818C25.1267 27.553 25.1197 27.263 25.1247 26.984C25.1307 26.67 25.1117 26.355 25.0977 26.041C25.0937 25.961 25.0647 25.882 25.0367 25.755C24.3317 27.062 23.3497 31.798 23.5837 32.709ZM26.1897 23.082C26.3067 23.017 26.3577 23.003 26.3877 22.97C27.3107 21.943 28.4357 21.202 29.6757 20.614C29.9217 20.497 30.1407 20.299 30.3317 20.099C30.7777 19.633 31.2017 19.145 31.6297 18.663C31.6817 18.605 31.7097 18.525 31.8027 18.36C29.3567 19.333 27.4177 20.717 26.1897 23.082ZM45.0667 17.098C45.2457 17.291 45.3607 17.424 45.4857 17.548C46.6887 18.736 47.8777 19.936 48.8107 21.361C48.8877 21.479 49.0117 21.601 49.1397 21.644C49.5717 21.789 50.0157 21.9 50.4597 22.025C50.2617 21.094 46.6237 17.746 45.0667 17.098ZM10.0457 45.93C9.92568 45.431 9.75868 44.97 9.36068 44.634C8.09168 43.565 7.14868 42.264 6.56868 40.704C6.53568 40.615 6.46368 40.541 6.35068 40.371C6.60668 42.974 7.96568 44.697 10.0457 45.93ZM20.6667 23.522C20.6307 23.551 20.5817 23.573 20.5597 23.611C20.1237 24.353 19.6717 25.088 19.2677 25.847C19.1517 26.064 19.1217 26.36 19.1437 26.612C19.2347 27.629 19.1467 28.628 18.9407 29.624C18.8407 30.109 18.7867 30.604 18.7247 31.096C18.7057 31.244 18.7327 31.398 18.7387 31.549C19.1377 28.807 19.8417 26.158 20.6667 23.522ZM41.8627 41.947C42.9067 41.342 45.8037 38.44 46.0187 37.742C44.6447 39.15 43.1097 40.206 41.4697 41.167C41.6147 41.454 41.7307 41.686 41.8627 41.947ZM63.3827 19.784C63.4167 17.8 60.7647 13.509 59.1777 12.86C59.9567 13.922 60.7867 14.997 61.5557 16.114C62.3337 17.246 62.8677 18.512 63.3827 19.784ZM50.4947 31.301C50.7097 30.902 50.8917 30.576 51.0597 30.242C51.0927 30.176 51.0967 30.07 51.0677 30.002C50.8807 29.564 50.6437 29.156 50.2687 28.704C50.1817 29.103 50.1627 29.422 50.0417 29.695C49.7647 30.321 50.0377 30.772 50.4947 31.301ZM35.2687 17.576C35.7017 17.792 36.4047 17.782 37.1617 17.561C36.5567 17.446 35.9547 17.442 35.2687 17.576ZM40.0047 47.965C40.2257 48.335 40.3627 48.358 40.8467 48.135C40.5827 47.768 40.5717 47.765 40.0047 47.965ZM46.9747 36.397C47.3787 36.046 47.3987 35.989 47.2637 35.592C47.1537 35.898 47.0647 36.148 46.9747 36.397ZM33.3207 59.78C33.3197 59.745 33.3177 59.71 33.3167 59.675C33.2507 59.679 33.1837 59.683 33.1177 59.688C33.1177 59.713 33.1177 59.738 33.1167 59.763C33.1857 59.768 33.2527 59.774 33.3207 59.78Z" fill="black"/>
<path d="M30.5788 66.995C29.9318 66.716 29.5888 66.21 29.6008 65.638C29.6118 65.072 29.9808 64.582 30.5578 64.366C31.0088 64.198 31.4768 64.196 31.9348 64.287C33.1718 64.534 34.4058 64.797 35.6368 65.072C36.7058 65.311 37.7598 65.631 38.8368 65.817C40.9328 66.18 42.9688 66.004 44.8848 64.973C45.6148 64.58 46.3758 64.243 47.1298 63.896C47.7618 63.606 48.4368 63.48 49.1228 63.569C50.6468 63.767 52.1358 63.476 53.6328 63.295C54.0738 63.242 54.5008 63.081 54.9348 62.968C55.0468 62.939 55.1558 62.888 55.2688 62.873C55.7048 62.815 55.9868 63.156 55.8138 63.557C55.7318 63.748 55.5858 63.927 55.4278 64.067C53.9188 65.404 52.2218 66.335 50.1458 66.312C49.1498 66.301 48.2418 66.488 47.4048 67.038C47.0868 67.247 46.7258 67.389 46.3988 67.586C44.5958 68.675 42.6148 69.072 40.5398 69.118C39.2308 69.147 37.9628 68.915 36.7088 68.566C35.2378 68.157 33.7638 67.753 32.2888 67.359C31.9048 67.257 31.5078 67.202 31.1178 67.121C30.9088 67.079 30.6998 67.024 30.5788 66.995Z" fill="black"/>
<path d="M3.0987 19.035C4.2197 16.472 5.7577 14.212 7.8307 12.33C8.5907 11.64 9.3817 10.983 10.1577 10.31C10.2447 10.234 10.3627 10.165 10.4007 10.067C10.4847 9.85102 10.6547 9.837 10.8387 9.81C11.4647 9.716 11.7767 10.055 11.5597 10.651C11.2257 11.57 10.8867 12.49 10.4847 13.38C10.2767 13.84 9.9817 14.286 9.6357 14.655C7.5177 16.916 6.2167 19.607 5.3917 22.558C5.2887 22.925 5.1857 23.294 5.0487 23.649C4.8467 24.173 4.4807 24.542 3.9227 24.688C2.9627 24.938 2.0417 24.256 1.9647 23.236C1.9197 22.646 2.0537 22.078 2.2337 21.525C2.5057 20.69 2.8087 19.865 3.0987 19.035Z" fill="black"/>
<path d="M7.67473 50.76C6.36373 50.167 5.23573 49.356 4.28473 48.272C3.01973 46.83 2.02773 45.243 1.44673 43.407C1.03173 42.094 0.596735 40.787 0.194735 39.47C0.109735 39.192 0.086735 38.881 0.103735 38.589C0.129735 38.151 0.388736 37.848 0.809736 37.72C1.21274 37.597 1.58774 37.71 1.84474 38.029C2.03774 38.268 2.18173 38.561 2.28773 38.852C2.70073 39.991 3.09373 41.137 3.48473 42.283C4.13673 44.194 5.14773 45.892 6.46773 47.415C6.78273 47.778 7.06973 48.165 7.35973 48.548C7.98573 49.376 8.69174 50.115 9.62874 50.599C9.68774 50.629 9.74674 50.662 9.79574 50.706C10.0037 50.893 9.96473 51.114 9.68773 51.186C9.51773 51.23 9.31873 51.235 9.14973 51.192C8.65473 51.065 8.16673 50.906 7.67473 50.76Z" fill="black"/>
<path d="M67.7478 37.518C67.7488 37.151 67.8738 36.818 68.1358 36.559C68.3698 36.328 68.6878 36.271 68.9598 36.462C69.2108 36.639 69.4568 36.862 69.6168 37.12C70.1238 37.939 70.3818 38.847 70.4198 39.81C70.4778 41.287 70.2138 42.72 69.8058 44.13C69.1568 46.371 68.2348 48.504 67.2078 50.592C66.9898 51.035 66.6958 51.445 66.4048 51.847C66.1968 52.135 65.9008 52.329 65.5398 52.393C64.8798 52.51 64.4608 52.028 64.6868 51.402C64.7478 51.234 64.8628 51.085 64.9538 50.927C65.2828 50.352 65.6708 49.803 65.9288 49.198C66.7308 47.32 67.5148 45.434 68.2448 43.527C68.8248 42.012 69.1168 40.426 69.0618 38.795C69.0468 38.352 68.9428 37.911 68.8638 37.471C68.8408 37.344 68.7738 37.22 68.7048 37.108C68.5088 36.789 68.2958 36.794 68.1178 37.116C68.0338 37.267 67.9598 37.423 67.8818 37.577C67.8378 37.559 67.7928 37.539 67.7478 37.518Z" fill="black"/>
<path d="M45.4547 0.644977C45.9687 0.915977 46.4927 1.16998 46.9927 1.46398C47.2757 1.62998 47.5337 1.84699 47.7777 2.06899C47.8947 2.17499 47.9757 2.33599 48.0327 2.48699C48.1017 2.67199 48.0607 2.86698 47.8817 2.96898C47.7087 3.06798 47.5487 3.07198 47.3457 2.92098C47.1197 2.75198 46.8147 2.64899 46.5307 2.60799C45.9407 2.52099 45.3427 2.49099 44.7467 2.44399C44.3997 2.41599 44.0457 2.42998 43.7037 2.37398C42.8997 2.24098 42.1157 2.34498 41.3297 2.49898C40.9547 2.57198 40.5797 2.649 40.2017 2.695C39.8487 2.739 39.5077 2.68398 39.2127 2.45198C38.7517 2.08798 38.6587 1.48198 39.0517 1.05098C39.2327 0.852983 39.4897 0.670985 39.7447 0.602985C40.5137 0.396985 41.2917 0.209991 42.0777 0.0909913C43.4517 -0.119009 44.1407 0.0219769 45.4547 0.644977Z" fill="black"/>
<path d="M71.5017 19.76C71.7647 19.14 72.3977 19.043 72.7397 19.506C72.8627 19.672 72.9427 19.89 72.9797 20.096C73.3907 22.418 73.7937 24.741 74.1887 27.066C74.2487 27.42 74.3267 27.79 74.0037 28.094C73.9387 28.155 73.9607 28.312 73.9507 28.425C73.9277 28.689 73.9377 28.96 73.8827 29.217C73.8347 29.439 73.7457 29.664 73.6207 29.853C73.4287 30.144 73.1497 30.162 72.9137 29.898C72.7747 29.742 72.6687 29.542 72.5977 29.344C72.5317 29.161 72.5077 28.954 72.5037 28.757C72.4467 26.141 72.0057 23.57 71.6047 20.994C71.5637 20.731 71.5057 20.471 71.4827 20.207C71.4657 20.03 71.4967 19.848 71.5017 19.76Z" fill="black"/>
<path d="M10.1427 60.421C8.93175 59.966 8.02475 58.036 9.63175 56.796C10.0947 56.439 10.6097 56.325 11.1767 56.449C12.1057 56.653 13.0587 57.544 12.9037 58.618C12.8767 58.808 12.9997 59.025 13.0697 59.224C13.1957 59.587 13.1447 59.667 12.7547 59.737C12.6547 59.755 12.5467 59.819 12.4757 59.894C11.7807 60.627 11.0457 60.796 10.1427 60.421Z" fill="black"/>
<path d="M41.6417 73.528C41.2907 73.306 41.0317 73.063 40.9337 72.68C40.7887 72.118 41.1527 71.638 41.7347 71.625C41.8487 71.622 41.9747 71.627 42.0777 71.67C43.0107 72.052 43.9697 71.931 44.9287 71.833C45.0937 71.816 45.2587 71.774 45.4227 71.78C45.7697 71.793 45.9157 72.09 45.7177 72.374C45.6537 72.466 45.5597 72.547 45.4627 72.606C44.6467 73.103 43.7827 73.49 42.8207 73.574C42.4317 73.607 42.0347 73.546 41.6417 73.528Z" fill="black"/>
<path d="M60.9507 4.52501C60.4437 4.15501 60.2417 3.57802 59.6737 3.39302C59.5857 3.49302 59.4957 3.60602 59.3937 3.70802C59.1577 3.94402 58.8747 4.05602 58.5387 4.00502C57.8817 3.90602 57.3187 3.02303 57.5017 2.38203C57.6577 1.83803 58.1787 1.61103 58.7297 1.86903C59.4017 2.18303 59.9476 2.66702 60.4006 3.24202C60.6216 3.52202 60.7626 3.86602 60.9296 4.18702C60.9616 4.24802 60.9417 4.33501 60.9507 4.52501Z" fill="black"/>
<path d="M0.35271 31.48C0.28571 31.399 0.147708 31.274 0.0637085 31.12C-0.0622915 30.89 0.00770952 30.611 0.19371 30.497C0.40171 30.37 0.572709 30.457 0.729709 30.605C0.813709 30.685 0.910711 30.754 0.982711 30.844C1.13171 31.03 1.12771 31.28 0.979709 31.437C0.817709 31.608 0.62771 31.597 0.35271 31.48Z" fill="black"/>
<path d="M55.9487 21.485C55.4947 19.735 54.1358 18.351 52.4028 17.874C49.2608 17.007 36.6437 16.934 36.6437 16.934C36.6437 16.934 24.0267 16.861 20.8747 17.691C19.1357 18.148 17.7607 19.516 17.2867 21.26C16.4257 24.422 16.3867 31.03 16.3867 31.03C16.3867 31.03 16.3487 37.637 17.1727 40.809C17.6267 42.559 18.9857 43.943 20.7187 44.42C23.8607 45.287 36.4777 45.36 36.4777 45.36C36.4777 45.36 49.0947 45.433 52.2467 44.603C53.9857 44.146 55.3608 42.778 55.8348 41.034C56.6968 37.872 56.7347 31.264 56.7347 31.264C56.7347 31.264 56.7737 24.657 55.9487 21.485ZM32.4007 37.123L32.4707 25.125L42.9807 31.186L32.4007 37.123Z" fill="white"/>
</svg>
